<?xml version="1.0" encoding="UTF-8"?>
<svg id="Layer_2" data-name="Layer 2" xmlns="http://www.w3.org/2000/svg" viewBox="0 0 750.76 932.22">
  <defs>
    <style>
      .cls-1 {
        fill: #b65c95;
      }

      .cls-2 {
        fill: #d0a72b;
      }

      .cls-3 {
        fill: #b43c88;
      }

      .cls-4 {
        fill: #433b8a;
      }

      .cls-5 {
        fill: #f5bb30;
      }
    </style>
  </defs>
  <g id="Layer_1-2" data-name="Layer 1">
    <g>
      <path class="cls-3" d="M183.1,80.28c11.84,4.69,29.75,13.39,39.03,21.14,6.35,5.3,10.85,10.13,14.56,17.73,3.2-4.59,8.97-6.32,13.2-9.61,6.32-4.91,10.81-9.2,18.09-13.49,8.88-5.24,19.89-6.87,27.97-12.01,4.22-2.68,12.46-2.2,17.46-3.29,19.72-4.3,41.01-7.22,61.65-5.57,8.09.65,17,4.21,25.72,2.57,4.07-6.06,5.76-12.8,9.79-19.03,8.44-13.04,22.49-27.22,35-36.11,8.43-6,34.32-18.07,44.15-19.19,2.41-.27,5.79.72,7.42.34,8.5-1.99,13.97-4.13,22.68-3.7,18.74.92,31.5,3.1,48.45,11.2,23.95,11.44,46.19,36.48,58.67,59.35,7.4,13.58,10.62,27.86,16.77,41.68,1.33,2.98,5.19,6.51,5.65,8.43.35,1.48-.71,3.04-.43,4.66,2.12,12.24,5.99,20.34,9.99,31.11,4.68,12.62,11.81,26.53,15.03,40.69,2.77,12.18,2.84,27.06,2.7,39.92-.06,5.51.59,12.38.23,17.74-.19,2.78-2.94,8.98-2.9,10.35.04,1.09,1.41,2.21,1.33,2.48-.06.19-1.97,1.43-2.68,3.03-1.12,2.49-1.22,5.68-2.62,8.34-3.36,6.39-8.51,9.9-13.29,14.51-.46.45-.22,2.14-1.22,3.15-10.24,10.38-34.66,10.62-48.18,7.91-3.5-.7-6.9-1.59-10-3.43-1.75-.12-.86,1.69-1.73,3.14-4.83,8.06-12,20.38-20.43,24.84-25.18,13.33-43.42,11.16-67.9-.63-2.67-1.29-5.59-5.18-8.69-6.29l-3.56,9.9c-.32,2.48-4.29,4.82-4.86,6-.71,1.48.29,5.01-3.11,5.95l12.74,2.9c15.23.21,28.77,2.08,43.48,8.83,15.24,6.99,33,18.29,44.34,30.45,10.53,11.29,15.07,22.88,22.53,35.58,4.3,7.33,9.92,22.98,11.69,32.12,2.65,13.68-1.2,41.47-4.04,55.42-.39,1.92-2.59,6.7-2.28,7.86.38,1.41,2.7,2,3.75,3.26,3.85,4.63,9.38,13.45,12.42,18.73,11.14,19.3,15.07,47.36,13.66,69.16-.08,1.25-.84,2.17-.95,3.31.65.48,9.12,1.44,10.6,1.79,2.08.5,3.96,2.15,5,2.33,7.93,1.4,26.67-5.88,31.79-12.29,1.15-1.44,10.04-16.8,10.26-18.01,1.65-9.16-.23-18.6-.27-27.56-.02-4.85,2.79-14.36,2.56-18.31-.33-5.45-5.87-12.71-7.95-17.41-14.84-33.56,11.13-53.81,26.29-80.48,3.96-1.26,7.73-1.13,9.21,3.32.72,2.17-1.59,3.41.24,4.3,3.46,1.69,3.82-1.23,6.03-1.82,3.56-.95,7.55.53,8.85,4.14,4.82,13.39,4.94,36.59.9,50.46-3.7,12.73-16.37,21.86-26.48,29.76-1.01.79-2.85.78-4.17,1.82-.34.27-4.1,7.06-4.27,7.57-3.24,10.04,1.13,23.87.39,34.55-.49,7.07-4.59,20.37-8.1,26.3-1.41,2.38-4.7,3.49-5.99,5.5-.91,1.41-.18,2.97-1.06,3.98-.31.36-6.93,5.91-7.35,6.15-2.9,1.67-5.23.57-7.42,1.33-1.93.67-2.48,2.73-3.62,3.21-3.2,1.36-17.34,3.31-21.13,2.98-5.76-.5-8.9-3.1-14.17-4.68-3.14,4.24-2.32,9.15-3.5,13.43-5.66,20.59-15.51,33.85-29.15,49.35-1.73,1.96-4.28,7.18-6.49,8.13-.82.35-2.57-.23-2.89.14-.26.3-.01,4.58-.64,5.31s-2.55.86-3.53,1.81c-.52.51-4.15,4.65-4.26,4.95-.72,2.02,8.26,4.26,9.95,5.29,1.46.88,1.95,2.9,3.61,3.5s5.02-.07,7.42.5c2.26.54,6.34,3.65,9.36,4.58,10.5,3.25,22.27,3.83,32.97,6.31,4.09.95,18.61,5.25,21.44,7.37,3.97,2.97,4.44,8.19,6.17,11.89,3.92,8.37,6.23,10.81,5.86,21.06-.34,9.44-2.13,19.3-1.66,28.62.56,11.21-4.01,24.08-5.98,35.28-.26,1.48.62,3.03.37,4.08-.18.74-3.49,3.19-3.77,4.15s.46,2.33.12,3.21c-2.43,6.37-11.31,23.27-16.41,27.16-3.01,2.3-4.01,3.01-6.62,5.3-15.73,13.77-22.89,15.22-43.84,17.67-15.3,1.79-51.71,4.84-61.06-11.31-2.94-5.08.41-4.29,1.04-7.19.62-2.88-.59-8,.08-11.93,1.67-9.83,8.51-19.63,15.8-26.06-4.26-3.14-10.12.4-14.47.7-7.44.52-24.43-.7-32.08-1.74-10.82-1.47-25.74-7.02-35.97-10.87-15.37-5.78-27.87-20.44-38.04-31.92-1.67-1.88-4.1-3.27-1.28-4.81l-9.25-14.53c-.35-2.31-3.91-15.81-4.92-16.07-3.29-.74-5.47,1.68-8.08,2.15-10.34,1.83-21.06,2.11-31.48,3.2-18.77,1.97-38.83,7.33-56.29,15.25-43.96,19.94-30.7,71.51-30.22,109.29.05,4.02-.17,15.79-1.07,19.1-.29,1.07-5.45,11.55-6.17,12.63-2.44,3.64-5,3.51-7.2,5.52-.81.74-.58,2.12-1.32,2.91-1,1.06-9.92,4.61-11.93,5.16-23.59,6.42-49.9,1.46-72.61-4.87-20.41-5.69-29.1-11.66-45.61-24.01-2.33-1.74-7.99-3.37-11.08-5.78-2.48-1.94-12.21-14.53-13.83-17.61-4.15-7.88-4.9-20.48-.96-28.57.47-.96,11.94-14.26,12.75-14.81,1.26-.87,5.21-2.55,6.75-3,5.51-1.61,16.56-.89,22.64-.45,3.24.24,6.17,1.61,9.32,1.52.3-.64-2.33-11.9-2.5-13.91-2.59-30.83,5.43-71.81,23-97.8,3.87-5.73,9.29-9.22,13.31-14.14,5.49-6.72,14.39-13.33,22.2-16.78,10.31-4.55,23.1-4.59,33.68-9.06-3.37-7.17-4.2-15.29-5.29-23.12-8.38,5.32-18.65,5.52-28.32,6.35-6.07.52-17.65,2-23.53.77-1.03-.21-1.89-1.68-3.95-1.91-3.04-.34-6,.91-9.07-.78,1.41,8.44-.05,14.05-6.38,19.91-8.14,7.54-20.5,12.64-30.74,16.74-7.88,3.16-16.4,5.3-24.35,8.35-.67,4.17-.88.48-1.89.51-2.79.08-9.57,1.54-12.89,2.07-13.02,2.07-25.51,7.08-38.31,8.75-11.58,1.51-20.87-2.86-27.44-12.21-7.65-10.87-14.41-37.94-18.05-51.74-.58-2.19.79-4.16.42-5.4-.12-.41-1.45.07-1.94-.62-2.37-3.29-3.8-14.89-4.32-19.2l-1.52.88c-1.12-6.09-4.01-11.77-5.66-17.64-.86-3.07-1.33-6.56-2.38-10.26-5.8-20.39-9.12-39.2-13.72-59.66-3.87-17.19-7.32-26.75-.03-44.41,3.91-9.48,6.54-10.96,12.79-17.93,5.39-6.01,11.5-11.93,10.48-20.69-2.17-18.54-14.5-39.74-16.01-57.85-.2-2.4-.07-4.74.55-7.07-4,.5-14.45,2.52-17.8,1.24-.87-.33-6.77-7.19-6.83-8.12.78-6.7.74-15.75,7.69-19.47,7.82-4.17,17.04-7.2,25.06-10.87,1.79-.82,3.11-3.11,5.42-3.77,8.48-2.43,17.98-5.09,26.93-5.35,5.01-.15,3.87,1.87,5.95,3.09,1.12.66,2.64.03,3.88.94,5.13,3.76,6.62,9.81,5.7,15.87-.73,4.79-6.27,7.32-6.15,9.25.08,1.32.97,7.14,1.31,8.44,3.19,12.05,10.78,28.94,16.11,40.37,2.79,5.99,1.76,5.99,7.1,10.87,9.89,9.04,25.98,13.33,35.77,22.19,1.91,1.73,2.73,4.59,4.18,5.87,2.78,2.47,16.63-3.96,20.99-3.28,18.67-9.17,39.79-21.76,52.09-38.92,7.86-10.96,5.12-10.79,5.49-22.88.49-16.05,2.78-32.21-3.3-47.32-6.49,2.52-14.74,6.43-21.61,7.56-6.31,1.04-15.24-1.55-20.53.07-4.42,1.35-8.66,6.79-12.99,8.03-2.87.82-13.44,1.2-16.81,1.07-1.19-.05-1.47-1.16-2.26-1.24-8.41-.9-13.94-1.51-20.21-8.65-3.44-3.91-3.03-6.71-5.17-10.56-.97-1.75-7.54-7.45-9.34-8.21-4.42-1.87-11.69,1.48-16.18,1.2-5.61-.35-13.93-6.84-18.38-8.42-1.63-.58-3.38,0-4.69-.72-3.92-2.17-9.34-10.95-10.69-15.15-.57-1.77-2.24-9.17-2.71-11.44-4.73-22.68.19-47.2-2.06-70.97-1.87-19.79-3.59-36.79-1.06-56.95,2.78-22.1,6.14-52.28,23.62-68.03,16.53-14.9,46.06-27.74,67.67-33.49,8.98-2.39,33.46.76,42.26,4.24ZM209.69,106.15c-11.01-6.85-30.05-15.04-42.21-17.74-2.42-.54-12.37-3.11-13.71-3.08-13.13.25-31.39,7.27-43.5,12.55-16.79,7.32-22.46,12.95-34.81,24.96-1.04,1.02-3.4,1.62-3.84,2.36-.32.55.15,2.04-.29,2.97-4.18,8.74-7.14,17.32-8.46,26.83-.77,5.56.09,16.66-.97,20.58-.82,3.04-3.48,3.23-.64,8.43l-1.88-.4-1.44,17.14c.26,18.8,4.33,37.47,3.95,55.8-.43,20.84-3.5,29.1,2.78,50.2.59,1.98-.01,4.34.91,6.9,5.21,14.5,20.6,13.8,32.74,15.3,4.99.62,13.47,1.17,18.04,4.12.89.58,5.81,5.01,6.47,5.87,5.02,6.55,7.29,17.82,17.17,19.03.8.1,15.37-.89,16.15-1.12,5.65-1.71,12.56-8.58,18.89-9.59,3.46-.56,5,1.05,7.71,1.3,1.24.12,7.6.78,8.01.75,2.25-.15,11.74-2.27,14.39-3.08,2.05-.62,3.81-2.04,5.99-2.38-3.45-13.55-6.55-27.23-9.49-40.9-6.08-28.31-7.84-55.17-7.27-83.91.15-7.76,8.45-39.14,11.23-47.73,5.19-16.05,14.27-29.26,23.25-43.31l-8.03-11.02c-3.94-3.01-6.27-7.76-11.16-10.8ZM228.73,359.75c.99.42,6.07-.3,7.67-.48,4.78-.53,11.22-2.49,15.64-2.82,2.2-.16,15.47.33,16.45,1.2,2.81,2.51.81,7.02-1.99,8.62-3.77,2.17-12.69.02-17.56.53-6.86.73-14.51,3.66-21.41,4.76,2.83,7.83,1.91,16.23,3,24.09.75.7,10.12-1.1,12.28-1.15,3.68-.07,17.6,1.26,20.19,2.84,4.89,2.99,4.57,9.62-.23,10.26s-10.99-2.23-15.4-2.69c-3.72-.39-7.31.44-10.8.42-2.18-.01-4.72-1.82-7.15-.29,1.48,3.77-5.06,13.28-3.58,16.31,1.64,3.36,12.12,5.55,15.63,7.2,3.97,1.87,16.31,8.88,10.35,13.76-1.59,1.3-6.67.85-8.28.04-1.1-.56-1.22-2.02-2.16-2.61-4.39-2.76-11.67-3.94-16.25-6.04-2.64-1.21-4.59-4.95-7.88-2.99-1.06.63-1.73,2.92-2.79,4.09-4.17,4.57-9.51,9.85-14.67,14.04-.86.7-1.83,1.22-2.91,1.49,5.11,3.2,13.18,8.77,14.53,15.07.35,1.62.32,5.47-.91,6.57-3.47,3.09-2.79.13-4.57-1.32-1.87-1.51-5.17-2.27-6.74-4.22-1.21-1.49-1.31-3.37-2.82-4.86-2.09-2.06-7.13-2.07-9.14-5.17-7.25,4.73-13.53,10.34-21.82,13.06,2.05,2.95,5.08,5.34,6.58,8.71,1.84,4.15,4.32,11.23,3.38,15.55-.99,4.51-5.92,3.29-8.12-.01-5.31-7.97-3-12.93-12.33-20.11-3.89-2.99-7.39,1.69-12.19,2.89-12.01,2.99-31.01,4.62-41.35,11.25-6.06,3.89-6.04,11.77-2.9,17.75,1.14,2.17,4.33,2.6,6.31,4.89,4.73,5.44,11.81,13.38,13.7,20.37.31,1.13.29,9.09.17,10.65-.59,7.65-7.15,22.83-2.13,29.16,2.55,3.2,7.5,5.06,11.52,4.43,10.76-1.67,17.03-12.82,26.19-15.91,12.9-4.36,25.41-9.55,38.17-14.5,22.9-8.88,43.34-14.31,64.02-28.5,11.38-7.81,18.25-16.18,27.06-25.91,7.96-8.8,18.44-16.45,26.35-25.62,19.55-22.63,29.29-61.97,33.47-91.22.31-2.15-.67-6.8.96-7.89,4.45-2.96,9.93-.9,10.29,4.49.1,1.53-1.37,9.1-1.88,10.94-1.61,5.73-3.87,12.31-5.34,18.73-1.29,5.62-.9,11.7-4.24,16.91,7.24-.39,13.04-1.89,19.51-5.27,9.86-5.15,18.97-17.56,27.56-21.97,10.69-5.49,13.95.39,5.7,8.09-17.36,16.2-28.84,24.65-52.02,30.51-7.76,1.96-7.52,11.75-10.46,17.18-2.32,4.29-3.09,5.62-5.28,10.33-8.33,17.97-28.23,30.77-41.52,45.02-.62,10.59-3.16,21.02-5.15,31.5-1.19,6.27-1.94,12.97-3.38,19.2-4.32,18.68-2.72,42.95-1.86,63,.55,13.01,1.16,16.98,4.24,29.18,2.5,9.9.22,15.35,4.66,26.73,2.11,5.41.32,6.38.4,8.04.14,3.04,4.02,5.75,2.56,9.79-1.32,3.66-4.21,1.34-6.41,1.54-13.58,1.24-30.98,8.42-43.38,13.47-4.9,2-12.64,11.66-16.39,15.76-4.19,4.58-6.65,6.09-9.52,11.38-14.13,26.1-18.59,50.87-18.1,80.4.06,3.38-.28,9.99.21,12.8.27,1.56,2.34,5.02,1.97,5.73-.2.38-2.26.41-2.44.69-.48.79,4.93,6.67,4.11,8.71-4.21-.97-1.77,1.54-3.58,3.24-2.46,2.31-15.97-.6-20.02-.77-3.72-.15-12.93-.31-16.27.15-7.57,1.06-8.13,4.07-12.45,9.07-.58.67-2.05.94-2.2,1.2-.18.31,1.05,1.46.96,2.35-.18,1.87-1.98,3.9-.44,6.36,7.61-4.85,23.35-6.13,28.14,3.14,1.02,1.97,2.52,12.61,2.04,14.67-.31,1.35-1.84,1.84-2.16,2.62-.42,1.01-.1,2.11-.59,3.18-1.14,2.48-4.2,3.94-2.25,7.14,9.58-1.05,14.51-12.19,23.64-14.1.55-.11,10.24.65,11.14.82,4.96.97,7.86,8.97,8.11,13.41l1.78-.04c-2.23,1.92-.56,6.58-.83,10.09-.14,1.78-2.16,12.08-1.66,12.46l23.04,6.48c13.15.41,28.12,3.06,41.1-.44,2.96-.8,3.71-3.03,5.43-3.92,1.35-.7,2.79-.01,4.77-1.4,3.35-2.35,10.2-11.7,10.72-15.69.3-2.32-.74-4.02-.71-6.04.06-3.95,1.79-7.55-.79-12.09l1.86.4c-.23-1.06.18-2.18,0-3.25-3.31-19.49-4.8-33.53-1.73-53.61.86-5.64,1.67-12.53,3.5-18.54,4.19-13.78,19.68-34.18,33-40.09,7.03-3.12,16.71-4.94,23.61-7.47,1.52-.56,2.76-2.29,4.8-2.92,3.14-.97,8.55.18,10.57-.46,17.07-5.47,36.47-6.92,54.24-10.62,2.71-.56,5.93-.22,8.61.39-.67-6.22-.44-12.87.46-19.11,2.17-15.08,6.8-29.78,13.11-43.63,3.39-7.44,12.26-18.21,17.56-24.56,2.46-2.95,13.79-17.52,17.31-12.96,3.17,4.11.09,4.2-1.16,6.8-5.25,10.97-15.25,20.21-21.76,30.38-4.41,6.89-5.02,14.06-7.69,21.61-1.97,5.57-6.1,10.58-6.38,16.76-.24,5.36-.37,7.85-1.36,13.65-4.53,26.33,10.91,50.18,30.43,67.1,8.93,7.75,22.1,11.51,33.14,15.8,18.7,7.28,45.05,6.83,65.62,5.82,5.35-.26,12.65-4.17,14.74,3.85,2.02,7.8-8.73,5.2-10.61,7.28-6.01,13.62-22.16,29.68-12.11,44.77l6.17-14.74c3.88-4.72,8.31-13.15,15.02-14.12,2.27-.33,9.1,1.79,10.76,3.4,2.94,2.87,6.49,7.47,7.4,11.58l4.23,6.68c.13-2.48-.14-5.48.4-7.87.71-3.18,8.65-17.34,11.04-19.68,3.64-3.55,7.09-4.73,12.2-4.23,5.48.53,16.58,8.19,18.54,13,1.13,2.77,1.18,5.98,2.82,8.51,7.08-6.46,12.01-13.81,15.84-22.54,9.13-20.78,9.01-46.3,9.34-69.25.16-10.85,1.87-16.19-4.84-26.36-2.02-3.06-5.2-3.65-8.57-4.67-22.87-6.94-47.11-8.1-68.52-19.12-4.23-2.18-20.17-2.16-20.53-5.5-.26-2.33,7.87-13.92,9.89-16.15,7.13-7.87,14.91-15.22,21.81-23.31,21.96-25.76,29.54-55.64,25.86-89.27-.87-7.92-2.79-20.7-6-28.04-3.19-7.29-7.96-15.52-12.82-22.94-1.16-1.77-1.37-5.3-2.91-1.68-5.72,13.45-10.85,28.97-21.94,39.39-6.57,6.18-29.65,21.53-37.98,24.54-24.55,8.87-52.65,6.76-77.37,1.34-4.26-.93-9.72-2.94-14.02-3.76-2.48-.47-5.46.1-8.1-1.21,3.04,7.55-3.48,13.34-5.88,19.49-3.14,8.06-3.13,13.17-8.94,21.09-1.23,1.67-6.4,7.82-7.73,8.76-2.25,1.58-14.7,3.08-18.01,3.24-20.32.94-51.52-7.11-68.35-19.41-4.15-3.03-12.58-11.19-13.85-16.08-.47-1.79.3-3.5.02-5.26-4.12-25.97,3.67-73,16.75-95.96,14.23-24.99,41.01-33.14,68.31-34.1,18.6-.65,40.33,5.89,58.55,7.11,4.35.29,32.94,10.47,33.88,8.98.86-10.43-2.88-21.84-8.84-30.41-1.63-2.34-8.31-7.46-8.55-8.18-1.77-5.15,4.62-7.69,8.8-6.87.85.17,3.67,2.65,4.34,3.45,6.72,7.95,12.09,18.82,13.08,29.15.29,3.05-1.07,13.83.18,14.92.92.8,2.62-.65,2.86,2.26.1,1.23-1.35,6.33-2.17,7.27-3.39,3.91-6.56-.29-8.88-.81-35.07-7.86-79.61-20.99-115.34-13.64-18.32,3.77-32.21,13.5-40.25,29.97-7.08,14.51-15.74,59.52-14.77,75.97.24,4.14,1.01,8.27,2.29,12.23,2.77-4.06,4.52-10.18,7.23-14.12,2.45-3.57,10.27-9.82,14.37-11.06,7.06-2.14,19.98,5.43,19.71,13.49-.05,1.57-1.75,2.79-1.67,5.23.14,3.97,3.85,9.16,3.36,13.7,1.53-1.29,1.95-3.34,3.23-4.84.62-.74,2.21-.8,2.85-1.49.69-.75,1.04-3.35,3.34-5.47,6.76-6.22,17.96-10.09,25.08-2.23,3.25,3.59,5.74,15.23,6.01,20.19.11,2.06-1.01,11.55-.76,12.22,1.85,5.04,9.74-8.57,10.51-10.11,3.27-6.54,4.34-14.21,6.69-20.78.7-1.96,3.4-5.02,3.61-6.41.35-2.24-1.44-3.15-1.35-4.93.07-1.48,3.23-9.39,4.65-10.03,4.9-2.21,4.25.74,7.07,1.87,9.89,3.97,23.5,6.06,33.78,7.35,2.58.32,6.45,2.56,8.99,2.72,6.69.43,7.78-.66,15.23.77,13.68,2.62,35.68-4.03,47.4-11.1,4.23-2.55,22.88-15.47,25.53-18.34,1.67-1.81.01-3.54,1.03-5.04,1.73-2.55,5.96-8.75,7.76-11.01,1.31-1.66,3.39-2.05,4.69-4.33,7-12.25,12.51-46.57,13.18-60.69,2.97-61.78-42.85-114.18-102.95-121.77-9.11-1.15-15.34-.04-23.92-.23-1.6-.04-8.19-.7-8.88-1.48-5.42-6.11,1.33-12.24,3.81-17.54,2.71-5.8,3.65-10.44,5.17-16.72.41-1.7,3.03-8,2.9-8.66-.32-1.58-3.89-2.82-5.1-4.18-6.96-7.86-12.28-16.26-16.81-25.76-6.5-13.65-12.47-31.21-15.03-45.81-.71-4.04-.23-13.37,5.64-11.69.61.17,4.37,5.71,4.51,6.92,2.23,18.76,10.11,42.24,22.01,57.5,3,3.85,2.69,4.67,4.69,7.76.65,1.01,2.21.59,2.92,1.3,1.86,1.84,3.95,6.03,6.04,7.53,1.44,1.03,4.1.91,5.04,1.64,3.1,2.41,5.9,6.02,10.15,8.64,14.07,8.67,19.82,7.17,35.09,8.51.65.06,1.03,1.36,1.61,1.32,2.42-.18,2.95-2.41,4.45-2.99,1.58-.6,4.47-.11,6.89-.89,2.64-.85,11.85-5.6,13.81-7.4,2.93-2.69,10.01-13.25,12.24-17.02,2.29-3.87,3.7-14.61,9.97-12.48,1.37.46,1.91,1.71,3.12,2.25,23.35,10.45,47.52,9.42,61.95-14.01,5.11-8.3,5.71-25.51,5.71-35.28,0-37.92-14.98-67.6-25.44-103.57-1.91-6.58-3.05-8.01-5.36-13.78-12.08-30.11-22.36-65.11-49.35-85.3-2.28-1.7-8.36-4.2-9.98-5.83-1.5-1.5-1.47-3.47-2.95-4.7-3.88-3.25-23.81-10.21-29.81-12-10.44-3.11-32.94-3.06-43.26-1.65-8.78,1.2-12.85,4-20.37,6.94-9.44,3.71-18.91,3.67-25.01,10.35-3.15,3.45-4.32,2.88-7.14,4.88-10.18,7.22-26.91,24.55-32.5,34.73-2.22,4.03-6.7,13.73-6.53,18.06.14,3.75,5.09,12.64.4,14.15-.7.23-5.19.9-5.43.77-2.01-1.09-2.15-13.03-4.39-14.01-2.04-.89-12.34-.18-15.77-.45-5.54-.44-10.1-2.37-15.35-2.68-7.89-.46-36.21.61-43.02,2.54-2.21.62-3.82,2.85-5.4,3.18-1.22.25-2.51-.87-3.77-.68-23.33,3.56-48.82,15.03-66.67,30.43-8.81,7.6-26.48,33.54-30.65,44.26-8.13,20.85-12.33,45.96-13.94,68.7-1.33,18.86.89,31.37,3.66,50,.32,2.14-.17,8.48-.01,8.9.44,1.21,2.28,2.15,2.98,4.71.61,2.24-.33,4.09-.03,5.33,2.13,8.9,4.66,21.18,7.02,29.41.5,1.74,2.22,3.28,2.51,4.72.27,1.31-1.03,2.7-.57,4.56.48,1.97,2.46,2.87,2.97,4.53.79,2.53.18,6.2,1.75,9.39.15.3,3.48,3.8,3.65,4.04-.51-.29-1.16-.12-1.45.39s-.12,1.16.39,1.46,1.16.12,1.45-.39.12-1.16-.39-1.46ZM64,358.53c-6.01-2.02-11.21,1.31-16.32,3.21-10.46,3.9-20.43,7.55-30.51,13.29-1.4.8-3.24.81-4.54,1.6-3.39,2.07-1.39,9.3,2.24,9.06,7.22-2.19,52.55-12.89,54.42-18.74,1.27-3.96-1.88-7.27-5.28-8.42ZM92.96,515.65c-8.45-8.97-8.8-24.57.27-33.29,9.21-8.85,11.77-7.17,22.51-9.91,2.33-.59,4.43-2.3,6.46-2.93s5.29.37,7.07-1.53c-2.54-1.73-4.33-4.69-6.97-6.22s-4.71-1.01-7.29-2.01c-3.45-1.34-9.01-5.75-12.66-7.93-2.13-1.26-7.19-3.08-9.53-4.83-8.1-6.07-12.97-24.05-16.53-33.59-2.91-7.81-5.27-16.74-8.45-24.4-1.18-2.85-3.49-5.21-3.93-8.43-10.6,4.53-21.71,8.31-32.86,10.59,3.34,5.34,1.46,12.37,3.93,18.19,6.2,14.6,12.07,29.71,14.67,45.87s-2.78,21.33-13.29,31.61c-5.53,5.41-5.25,5.92-8.63,12.93-8.55,17.72-4.28,26.12-.29,44.59,2.42,11.18,4.47,22.29,7.31,33.8,5.06,20.57,11.86,40.89,18.18,61.15,4.13,13.22,8.33,27.01,12.57,40.35,2.39,7.5,2.95,17.98,9.04,23.36,1.54,1.36,5.52,3.23,7.39,3.63,5.97,1.3,17.16-1.02,23.61-2.34,25.17-5.17,57.94-11.9,80.66-24.57,1.6-.89,10.03-8.93,10.32-9.88.24-.78-.56-2.08-.21-3.3.21-.75,1.69-1.1,1.67-2-.16-12.15-3.17-28.36-6.22-40.12-1-3.84-3.31-6.95-4.03-11.43-1.32-8.19-1.3-17.34-3.31-25.85-1.52-6.41-5.51-14.18-6.3-19.83-.15-1.08,1.97-3.35,1.34-5.21-3.65,1.16-7.57,1.7-11.16,3.05-3.8,1.43-9.01,4.76-13.16,6.13-.27.09-.56.13-.83.22-.5.17-4.02-1.26-4.77,2.17-6.14,2.9-8.53,6.41-14.86,9.37-1.2.56-1.79,2.22-2.8,2.33-1.13.13-8.45-.65-10.01-.96-2.41-.48-3.79-2.01-5.23-2.52-1.12-.4-2.54.6-4.35-.41-.59-.33-5.79-6.7-6.21-7.53-2.96-5.87-1.42-18-.35-24.56.39-2.38,2.41-1.7,1.45-7.23,1.68-1.52,2.62-8.06,1.89-9.75-.22-.51-1.57-.04-1.96-.71-1.16-1.97-1.41-4.45-3.19-6.46-.9-1.02-3.54-2.61-5.04-4.07-1.66-1.62-2.64-5.27-5.95-5.55ZM188.2,558c1.93,1.41,5.43,2.65,7.74,3.04,19.03,3.22,39.06,2.43,56.78-6.25,1.79-.87,14.45-8.83,15.01-9.63.71-1.02.29-2.63.79-3.77,1.98-4.5,1.48-5.08,2.57-9.08,1.89-6.91,3.91-13.77,5.5-20.76-8.22,7.25-16.93,14.36-26.57,19.85-5.67,3.22-12.02,5.36-17.77,8.01-2.29,1.05-2.01,2.73-2.46,2.97-3.08,1.6-10.9.78-14.61,3.04l6.26.09c-5.41.81-10.17,3.25-15.16,5.04-1.69.6-3.75.15-5.06.66-4,1.56-8.74,5.33-13.02,6.79ZM270.21,647.63c-.18-1.91-1.79-3.32-2.18-5.12-4.1-19.12-2.64-52.98-2.05-73.02.12-4.14-.85-8.32.5-12.38-5.64,3.17-11.07,8.08-17.48,9.05-10.49,4.55-22.23,7.78-33.6,7.52-7.76-.18-15.49-1.9-23.31-1.49-2.21,7.3,2.05,14.01,3.4,20.65,2.75,13.55,5.53,26.95,7.78,40.26.41,2.43,2.93,16.43,3.55,17.04.44.44,10.67,2.63,12.13,2.75,9.38.78,34.76-.25,43.65-2.42,2.38-.58,4.8-2.75,7.62-2.84ZM729.16,512.82c1.41-1.56,6.47-7.19,7.23-8.84.89-1.92,5.27-24,5.14-25.9-.32-4.67-1.93-10.97-2.43-15.83l-13.41,53.15c1.21-.16,2.66-1.69,3.46-2.58ZM707.12,488.12c1.85-4.51,4.82-9.44,6.55-14.17-.98-2.98-.51-.74-1.08.08-1.06,1.54-2.28,2.32-2.86,3.28-2.56,4.19-7.56,17.82-7.73,22.29-.1,2.7,1.43,6.63.68,9.89,1.91-.13,1.66-1.39,1.99-2.72,1.58-6.4.11-12.97,2.45-18.66ZM368.05,590.36c-12.53.06-15.17,14.23-19.5,23.33.89,4.87,3.47,3.47,4.36,4.03,4.66,2.9,14.09,9.08,19.45,9.7,1.75.2.92-.84.87-1.58-.32-4.54-2.28-8.95-2.21-13.26.04-2.73,1.08-4.83.95-7.9-.11-2.55-1.95-13.38-3.92-14.32ZM412.67,633.47c1.17-1.28-.77-23.61-2.58-26.3-1.07-1.6-8.33-.62-9.88.29-.4.23-4.03,6.73-4.84,7.9-3.54,5.12-2.03,2.95-3.99,8.11-.63,1.67-4.15,4.42-2.75,6.2,2.14,2.73,20.98,7.13,24.03,3.81ZM156.41,866.76c-2.54-.47-7.78,2.33-10.68,2.59,1.35,1.6,1.62,4.39,2.49,5.82.47.77,1.92.11,2.6,1.59,1.31,2.85,1.04,8.1,5.24,9.45,4.36-6.66,12.13-12.22,4.87-20.06-3.09,3.38-3.96.71-4.52.61ZM194.38,885.08c-1.33-.24-10.85,8.55-12.97,10.16-1.81,1.38-6.29,1.75-4.95,5.59.08.22,3.4.09,4.54,1.3.75.8.64,2.4,1.19,2.81.34.25,1.99-.2,3.02.22,5.48,2.22,9.18,6.62,15.16,6.71.73-7.38,4.76-15.62.45-22.72-.23-.38-6.07-4-6.44-4.07ZM598.07,882.13c-.4-3.93-2.6-7.58-3.67-11.06-.68-2.21-1.81-11.39-4.74-11.58-6.48-.42-12.3,14.17-12.93,19.83,2.26,0,4.04,2.86,5.34,3.11,1.84.36,3.6-.85,5.39-.81,1.6.04,10.21,1.32,10.6.52ZM630.29,849.53c-3.04-1.5-3.26,3.11-4.05,4.15-5.22,6.88-5.07,9.34-6.7,17.27-.62,3.01-1.39,5.91-2.48,8.77,4.83-2.52,23.3-4.8,25.56-9.52,1.98-4.12-1.77-6.23-2.77-8.71-1.1-2.71,0-6.25-2.55-8.89-1.95-2.02-3.66.14-5.37-.48-1.03-.37-1.26-2.41-1.64-2.6Z"/>
      <path class="cls-5" d="M228.73,359.75c-.17-.25-3.5-3.74-3.65-4.04-1.57-3.18-.96-6.85-1.75-9.39-.51-1.65-2.49-2.55-2.97-4.53-.45-1.85.84-3.24.57-4.56-.3-1.44-2.01-2.98-2.51-4.72-2.37-8.23-4.89-20.51-7.02-29.41-.3-1.24.64-3.1.03-5.33-.7-2.56-2.54-3.5-2.98-4.71-.15-.42.33-6.75.01-8.9-2.76-18.63-4.99-31.14-3.66-50,1.61-22.74,5.81-47.85,13.94-68.7,4.18-10.71,21.84-36.65,30.65-44.26,17.85-15.4,43.33-26.87,66.67-30.43,1.26-.19,2.55.93,3.77.68,1.58-.33,3.19-2.55,5.4-3.18,6.81-1.92,35.13-2.99,43.02-2.54,5.26.3,9.81,2.24,15.35,2.68,3.43.27,13.73-.44,15.77.45,2.24.98,2.39,12.92,4.39,14.01.24.13,4.72-.54,5.43-.77,4.69-1.51-.26-10.4-.4-14.15-.16-4.33,4.32-14.03,6.53-18.06,5.6-10.19,22.32-27.51,32.5-34.73,2.81-1.99,3.99-1.43,7.14-4.88,6.1-6.67,15.57-6.64,25.01-10.35,7.52-2.95,11.59-5.74,20.37-6.94,10.31-1.41,32.82-1.46,43.26,1.65,6,1.79,25.93,8.75,29.81,12,1.47,1.23,1.45,3.2,2.95,4.7,1.62,1.62,7.71,4.12,9.98,5.83,26.99,20.19,37.27,55.19,49.35,85.3,2.31,5.77,3.45,7.2,5.36,13.78,10.46,35.97,25.45,65.65,25.44,103.57,0,9.77-.6,26.98-5.71,35.28-14.43,23.43-38.6,24.46-61.95,14.01-1.2-.54-1.75-1.79-3.12-2.25-6.27-2.13-7.69,8.61-9.97,12.48-2.23,3.77-9.32,14.33-12.24,17.02-1.97,1.81-11.17,6.55-13.81,7.4-2.42.78-5.31.29-6.89.89s-2.03,2.8-4.45,2.99c-.58.04-.96-1.26-1.61-1.32-15.27-1.34-21.01.16-35.09-8.51-4.25-2.62-7.05-6.22-10.15-8.64-.94-.73-3.6-.6-5.04-1.64-2.09-1.49-4.17-5.69-6.04-7.53-.71-.71-2.28-.29-2.92-1.3-2-3.1-1.69-3.92-4.69-7.76-11.9-15.26-19.77-38.73-22.01-57.5-.14-1.2-3.9-6.74-4.51-6.92-5.87-1.67-6.35,7.65-5.64,11.69,2.57,14.6,8.53,32.16,15.03,45.81,4.53,9.5,9.85,17.9,16.81,25.76,1.21,1.36,4.78,2.6,5.1,4.18.13.66-2.48,6.96-2.9,8.66-1.53,6.28-2.46,10.92-5.17,16.72-2.48,5.31-9.22,11.43-3.81,17.54.69.78,7.28,1.44,8.88,1.48,8.58.19,14.82-.92,23.92.23,60.11,7.59,105.92,59.99,102.95,121.77-.68,14.11-6.18,48.43-13.18,60.69-1.31,2.28-3.38,2.68-4.69,4.33-1.8,2.26-6.03,8.46-7.76,11.01-1.01,1.5.64,3.23-1.03,5.04-2.65,2.87-21.3,15.79-25.53,18.34-11.72,7.07-33.73,13.72-47.4,11.1-7.45-1.43-8.54-.34-15.23-.77-2.53-.16-6.41-2.4-8.99-2.72-10.27-1.29-23.89-3.37-33.78-7.35-2.81-1.13-2.17-4.09-7.07-1.87-1.42.64-4.58,8.55-4.65,10.03-.09,1.78,1.7,2.69,1.35,4.93-.22,1.39-2.91,4.45-3.61,6.41-2.35,6.57-3.42,14.25-6.69,20.78-.77,1.54-8.66,15.15-10.51,10.11-.25-.67.88-10.16.76-12.22-.27-4.97-2.76-16.6-6.01-20.19-7.11-7.86-18.32-3.99-25.08,2.23-2.3,2.11-2.64,4.72-3.34,5.47-.65.7-2.23.76-2.85,1.49-1.27,1.51-1.7,3.56-3.23,4.84.48-4.54-3.23-9.73-3.36-13.7-.08-2.44,1.62-3.66,1.67-5.23.28-8.06-12.65-15.63-19.71-13.49-4.1,1.24-11.92,7.5-14.37,11.06-2.71,3.94-4.46,10.06-7.23,14.12-1.28-3.96-2.04-8.08-2.29-12.23-.97-16.45,7.69-61.46,14.77-75.97,8.03-16.47,21.93-26.2,40.25-29.97,35.73-7.35,80.27,5.77,115.34,13.64,2.32.52,5.49,4.71,8.88.81.82-.94,2.27-6.04,2.17-7.27-.24-2.91-1.94-1.46-2.86-2.26-1.25-1.09.11-11.87-.18-14.92-1-10.33-6.36-21.2-13.08-29.15-.68-.8-3.49-3.28-4.34-3.45-4.19-.82-10.57,1.72-8.8,6.87.25.72,6.93,5.84,8.55,8.18,5.96,8.57,9.7,19.98,8.84,30.41-.94,1.48-29.53-8.69-33.88-8.98-18.22-1.22-39.94-7.76-58.55-7.11-27.3.96-54.08,9.1-68.31,34.1-13.07,22.96-20.86,69.99-16.75,95.96.28,1.76-.48,3.47-.02,5.26,1.27,4.9,9.7,13.05,13.85,16.08,16.83,12.3,48.03,20.36,68.35,19.41,3.31-.15,15.76-1.65,18.01-3.24,1.33-.94,6.5-7.09,7.73-8.76,5.82-7.92,5.8-13.03,8.94-21.09,2.4-6.15,8.92-11.95,5.88-19.49,2.64,1.31,5.62.74,8.1,1.21,4.31.82,9.77,2.83,14.02,3.76,24.72,5.41,52.82,7.53,77.37-1.34,8.33-3.01,31.41-18.36,37.98-24.54,11.09-10.43,16.22-25.95,21.94-39.39,1.54-3.62,1.75-.09,2.91,1.68,4.86,7.42,9.63,15.64,12.82,22.94,3.21,7.34,5.13,20.12,6,28.04,3.68,33.63-3.89,63.51-25.86,89.27-6.9,8.09-14.68,15.44-21.81,23.31-2.02,2.23-10.15,13.82-9.89,16.15.37,3.34,16.3,3.32,20.53,5.5,21.4,11.02,45.64,12.18,68.52,19.12,3.37,1.02,6.55,1.61,8.57,4.67,6.71,10.17,4.99,15.51,4.84,26.36-.33,22.95-.21,48.46-9.34,69.25-3.83,8.72-8.76,16.08-15.84,22.54-1.64-2.53-1.7-5.74-2.82-8.51-1.96-4.81-13.06-12.47-18.54-13-5.11-.5-8.56.67-12.2,4.23-2.39,2.34-10.33,16.49-11.04,19.68-.54,2.4-.27,5.39-.4,7.87l-4.23-6.68c-.91-4.11-4.46-8.71-7.4-11.58-1.65-1.61-8.49-3.73-10.76-3.4-6.71.97-11.13,9.4-15.02,14.12l-6.17,14.74c-10.04-15.09,6.11-31.16,12.11-44.77,1.88-2.08,12.63.52,10.61-7.28-2.08-8.03-9.38-4.12-14.74-3.85-20.57,1.01-46.91,1.46-65.62-5.82-11.04-4.3-24.2-8.05-33.14-15.8-19.51-16.93-34.96-40.77-30.43-67.1,1-5.8,1.12-8.29,1.36-13.65.28-6.18,4.41-11.19,6.38-16.76,2.67-7.55,3.28-14.72,7.69-21.61,6.51-10.17,16.51-19.41,21.76-30.38,1.25-2.6,4.33-2.69,1.16-6.8-3.52-4.56-14.85,10.01-17.31,12.96-5.3,6.36-14.17,17.12-17.56,24.56-6.31,13.85-10.94,28.56-13.11,43.63-.9,6.24-1.13,12.89-.46,19.11-2.68-.61-5.9-.96-8.61-.39-17.77,3.71-37.17,5.15-54.24,10.62-2.01.64-7.43-.51-10.57.46-2.04.63-3.28,2.37-4.8,2.92-6.9,2.53-16.58,4.36-23.61,7.47-13.32,5.91-28.81,26.3-33,40.09-1.83,6.01-2.64,12.9-3.5,18.54-3.06,20.08-1.58,34.12,1.73,53.61.18,1.07-.23,2.18,0,3.25l-1.86-.4c2.58,4.53.85,8.14.79,12.09-.03,2.02,1.01,3.72.71,6.04-.52,3.99-7.37,13.34-10.72,15.69-1.98,1.39-3.42.7-4.77,1.4-1.72.89-2.47,3.12-5.43,3.92-12.98,3.5-27.95.85-41.1.44l-23.04-6.48c-.5-.38,1.53-10.68,1.66-12.46.27-3.51-1.4-8.18.83-10.09l-1.78.04c-.25-4.45-3.15-12.45-8.11-13.41-.9-.18-10.59-.94-11.14-.82-9.13,1.91-14.06,13.06-23.64,14.1-1.95-3.2,1.11-4.66,2.25-7.14.49-1.07.17-2.17.59-3.18.32-.77,1.85-1.27,2.16-2.62.48-2.06-1.03-12.71-2.04-14.67-4.79-9.27-20.53-7.99-28.14-3.14-1.54-2.45.26-4.49.44-6.36.09-.89-1.14-2.04-.96-2.35.15-.26,1.62-.53,2.2-1.2,4.32-5,4.88-8.02,12.45-9.07,3.34-.47,12.55-.3,16.27-.15,4.05.16,17.55,3.08,20.02.77,1.81-1.7-.63-4.21,3.58-3.24.81-2.04-4.59-7.93-4.11-8.71.17-.28,2.24-.31,2.44-.69.37-.71-1.7-4.17-1.97-5.73-.49-2.81-.15-9.42-.21-12.8-.5-29.53,3.97-54.3,18.1-80.4,2.87-5.3,5.33-6.8,9.52-11.38,3.75-4.1,11.49-13.77,16.39-15.76,12.4-5.05,29.8-12.22,43.38-13.47,2.19-.2,5.09,2.11,6.41-1.54,1.46-4.05-2.42-6.75-2.56-9.79-.08-1.66,1.71-2.63-.4-8.04-4.44-11.38-2.16-16.83-4.66-26.73-3.09-12.21-3.69-16.18-4.24-29.18-.85-20.06-2.46-44.32,1.86-63,1.44-6.24,2.19-12.93,3.38-19.2,1.99-10.48,4.53-20.9,5.15-31.5,13.29-14.25,33.19-27.05,41.52-45.02,2.18-4.71,2.96-6.05,5.28-10.33,2.94-5.43,2.7-15.22,10.46-17.18,23.18-5.86,34.66-14.3,52.02-30.51,8.25-7.7,5-13.58-5.7-8.09-8.59,4.41-17.7,16.82-27.56,21.97-6.47,3.38-12.28,4.87-19.51,5.27,3.34-5.21,2.95-11.28,4.24-16.91,1.47-6.42,3.73-13.01,5.34-18.73.52-1.84,1.99-9.41,1.88-10.94-.36-5.39-5.84-7.45-10.29-4.49-1.63,1.09-.66,5.74-.96,7.89-4.17,29.25-13.92,68.58-33.47,91.22-7.92,9.17-18.39,16.82-26.35,25.62-8.81,9.73-15.68,18.11-27.06,25.91-20.68,14.18-41.13,19.61-64.02,28.5-12.76,4.95-25.28,10.14-38.17,14.5-9.16,3.1-15.43,14.24-26.19,15.91-4.02.63-8.97-1.23-11.52-4.43-5.03-6.33,1.54-21.51,2.13-29.16.12-1.55.14-9.51-.17-10.65-1.89-6.98-8.97-14.93-13.7-20.37-1.99-2.28-5.17-2.71-6.31-4.89-3.15-5.98-3.16-13.86,2.9-17.75,10.34-6.63,29.33-8.26,41.35-11.25,4.8-1.2,8.3-5.87,12.19-2.89,9.33,7.17,7.02,12.14,12.33,20.11,2.2,3.3,7.13,4.52,8.12.01.94-4.31-1.54-11.4-3.38-15.55-1.5-3.37-4.53-5.77-6.58-8.71,8.29-2.72,14.57-8.34,21.82-13.06,2.01,3.1,7.05,3.11,9.14,5.17,1.51,1.49,1.61,3.37,2.82,4.86,1.57,1.94,4.87,2.71,6.74,4.22,1.78,1.44,1.1,4.41,4.57,1.32,1.23-1.1,1.25-4.95.91-6.57-1.35-6.3-9.42-11.87-14.53-15.07,1.08-.27,2.04-.79,2.91-1.49,5.17-4.19,10.5-9.47,14.67-14.04,1.06-1.17,1.73-3.46,2.79-4.09,3.29-1.96,5.24,1.78,7.88,2.99,4.58,2.1,11.86,3.28,16.25,6.04.94.59,1.06,2.06,2.16,2.61,1.6.81,6.69,1.26,8.28-.04,5.96-4.88-6.38-11.88-10.35-13.76-3.51-1.65-13.99-3.84-15.63-7.2-1.48-3.03,5.06-12.53,3.58-16.31,2.43-1.53,4.96.28,7.15.29,3.49.02,7.08-.81,10.8-.42,4.41.46,10.83,3.3,15.4,2.69,4.8-.64,5.12-7.27.23-10.26-2.59-1.58-16.5-2.91-20.19-2.84-2.16.04-11.53,1.84-12.28,1.15-1.09-7.86-.16-16.26-3-24.09,6.9-1.11,14.55-4.03,21.41-4.76,4.87-.52,13.79,1.64,17.56-.53,2.79-1.61,4.8-6.11,1.99-8.62-.98-.87-14.25-1.37-16.45-1.2-4.43.33-10.87,2.29-15.64,2.82-1.6.18-6.68.9-7.67.48.51.29.68.95.39,1.46s-.95.68-1.45.39-.68-.95-.39-1.46.95-.68,1.45-.39ZM263.87,229.39c-4.13-3.87-9.54-9.53-16.25-7.85-26.47,6.66-26.72,34.49-22.8,56.58,1.95,11.01,4.56,21.12,11.44,30.17,8.05,10.59,21.06,5.21,29.3-2.4,6.43-5.93,5.9-10.86,7.93-17.98.22-.78,1.41-1.35,1.59-2.06,3.71-14.7,1.2-44.93-9.65-55.87-.45-.46-1.33-.37-1.57-.58ZM366.39,281.42c4.61-13.95,6.01-53.31-3.27-64.83-3.79-4.71-11.55-9.68-17.39-11.35-8.48-2.42-21.67,5.19-26.61,11.89-6.95,9.41-10.62,33.06-9.4,44.57.55,5.16,4.15,24.55,5.85,28.64.45,1.09,8.16,12.42,8.79,12.88,1.69,1.22,13.79,2.76,16.22,2.37,12.18-1.95,22.17-13.23,25.79-24.17Z"/>
      <path class="cls-5" d="M209.69,106.15c4.88,3.04,7.21,7.79,11.16,10.8l8.03,11.02c-8.98,14.04-18.06,27.25-23.25,43.31-2.78,8.59-11.07,39.97-11.23,47.73-.57,28.74,1.18,55.6,7.27,83.91,2.94,13.67,6.04,27.35,9.49,40.9-2.18.34-3.94,1.75-5.99,2.38-2.65.81-12.14,2.93-14.39,3.08-.41.03-6.77-.64-8.01-.75-2.71-.25-4.25-1.86-7.71-1.3-6.33,1.02-13.24,7.89-18.89,9.59-.78.24-15.35,1.22-16.15,1.12-9.89-1.22-12.16-12.48-17.17-19.03-.66-.86-5.57-5.29-6.47-5.87-4.58-2.95-13.05-3.5-18.04-4.12-12.14-1.5-27.53-.81-32.74-15.3-.92-2.56-.32-4.92-.91-6.9-6.29-21.09-3.22-29.36-2.78-50.2.38-18.33-3.69-37-3.95-55.8l1.44-17.14,1.88.4c-2.84-5.2-.19-5.39.64-8.43,1.06-3.92.2-15.01.97-20.58,1.32-9.51,4.29-18.09,8.46-26.83.44-.93-.03-2.42.29-2.97.44-.74,2.8-1.34,3.84-2.36,12.35-12.01,18.03-17.64,34.81-24.96,12.11-5.28,30.37-12.3,43.5-12.55,1.33-.03,11.29,2.55,13.71,3.08,12.16,2.7,31.2,10.89,42.21,17.74Z"/>
      <path class="cls-5" d="M270.21,647.63c-2.82.09-5.24,2.26-7.62,2.84-8.88,2.18-34.27,3.2-43.65,2.42-1.45-.12-11.69-2.31-12.13-2.75-.62-.61-3.14-14.61-3.55-17.04-2.25-13.31-5.03-26.71-7.78-40.26-1.35-6.65-5.61-13.36-3.4-20.65,7.82-.41,15.55,1.31,23.31,1.49,11.36.26,23.11-2.97,33.6-7.52,6.42-.97,11.85-5.88,17.48-9.05-1.34,4.06-.38,8.24-.5,12.38-.59,20.04-2.05,53.89,2.05,73.02.38,1.8,1.99,3.21,2.18,5.12Z"/>
      <path class="cls-5" d="M188.2,558c4.29-1.46,9.03-5.22,13.02-6.79,1.31-.51,3.37-.06,5.06-.66,4.99-1.79,9.75-4.24,15.16-5.04l-6.26-.09c3.71-2.27,11.53-1.44,14.61-3.04.45-.24.18-1.91,2.46-2.97,5.75-2.65,12.1-4.79,17.77-8.01,9.64-5.48,18.36-12.6,26.57-19.85-1.58,6.99-3.61,13.85-5.5,20.76-1.09,4-.59,4.58-2.57,9.08-.5,1.14-.08,2.75-.79,3.77-.56.81-13.23,8.76-15.01,9.63-17.72,8.68-37.75,9.47-56.78,6.25-2.31-.39-5.82-1.63-7.74-3.04Z"/>
      <path class="cls-5" d="M368.05,590.36c1.96.94,3.8,11.76,3.92,14.32.13,3.07-.91,5.17-.95,7.9-.07,4.31,1.88,8.72,2.21,13.26.05.74.89,1.78-.87,1.58-5.36-.61-14.79-6.8-19.45-9.7-.89-.56-3.47.84-4.36-4.03,4.33-9.09,6.97-23.26,19.5-23.33Z"/>
      <path class="cls-5" d="M412.67,633.47c-3.04,3.33-21.88-1.08-24.03-3.81-1.4-1.78,2.11-4.53,2.75-6.2,1.96-5.16.45-2.99,3.99-8.11.81-1.17,4.44-7.67,4.84-7.9,1.55-.91,8.8-1.89,9.88-.29,1.8,2.69,3.74,25.03,2.58,26.3Z"/>
      <path class="cls-5" d="M630.29,849.53c.38.19.6,2.22,1.64,2.6,1.71.61,3.41-1.54,5.37.48,2.56,2.64,1.46,6.18,2.55,8.89,1,2.48,4.75,4.59,2.77,8.71-2.26,4.71-20.73,7-25.56,9.52,1.09-2.87,1.86-5.76,2.48-8.77,1.63-7.92,1.48-10.38,6.7-17.27.79-1.04,1.01-5.65,4.05-4.15Z"/>
      <path class="cls-5" d="M194.38,885.08c.37.07,6.21,3.69,6.44,4.07,4.32,7.1.28,15.34-.45,22.72-5.99-.09-9.69-4.49-15.16-6.71-1.04-.42-2.68.03-3.02-.22-.55-.41-.44-2.01-1.19-2.81-1.14-1.21-4.46-1.08-4.54-1.3-1.34-3.84,3.14-4.21,4.95-5.59,2.12-1.62,11.64-10.41,12.97-10.16Z"/>
      <path class="cls-5" d="M598.07,882.13c-.39.8-9-.48-10.6-.52-1.8-.04-3.56,1.17-5.39.81-1.3-.25-3.08-3.12-5.34-3.11.63-5.65,6.45-20.25,12.93-19.83,2.92.19,4.05,9.37,4.74,11.58,1.08,3.49,3.28,7.13,3.67,11.06Z"/>
      <path class="cls-5" d="M156.41,866.76c.55.1,1.43,2.77,4.52-.61,7.27,7.84-.51,13.4-4.87,20.06-4.2-1.35-3.93-6.61-5.24-9.45-.68-1.48-2.13-.82-2.6-1.59-.87-1.43-1.14-4.22-2.49-5.82,2.9-.26,8.14-3.06,10.68-2.59Z"/>
      <path class="cls-5" d="M707.12,488.12c-2.34,5.68-.87,12.26-2.45,18.66-.33,1.33-.07,2.59-1.99,2.72.76-3.27-.78-7.19-.68-9.89.17-4.47,5.16-18.1,7.73-22.29.59-.96,1.81-1.74,2.86-3.28.56-.82.1-3.06,1.08-.08-1.73,4.73-4.69,9.66-6.55,14.17Z"/>
      <path class="cls-5" d="M729.16,512.82c-.81.89-2.26,2.42-3.46,2.58l13.41-53.15c.5,4.86,2.11,11.16,2.43,15.83.13,1.9-4.26,23.98-5.14,25.9-.76,1.64-5.81,7.27-7.23,8.84Z"/>
      <g>
        <path class="cls-5" d="M155.17,571.3c4.15-1.37,9.36-4.7,13.16-6.13,3.59-1.35,7.51-1.9,11.16-3.05.63,1.86-1.49,4.13-1.34,5.21.79,5.65,4.78,13.42,6.3,19.83,2.01,8.5,1.99,17.66,3.31,25.85.72,4.47,3.04,7.58,4.03,11.43,3.05,11.75,6.06,27.97,6.22,40.12.01.9-1.46,1.25-1.67,2-.35,1.21.45,2.52.21,3.3-.29.94-8.72,8.99-10.32,9.88-22.72,12.67-55.49,19.4-80.66,24.57-6.45,1.33-17.64,3.65-23.61,2.34-1.87-.41-5.85-2.28-7.39-3.63-6.08-5.38-6.65-15.85-9.04-23.36-4.24-13.34-8.44-27.13-12.57-40.35-6.33-20.27-13.12-40.58-18.18-61.15-2.83-11.51-4.88-22.62-7.31-33.8-4-18.46-8.27-26.86.29-44.59,3.38-7,3.1-7.52,8.63-12.93,10.52-10.27,15.8-16,13.29-31.61s-8.46-31.27-14.67-45.87c-2.47-5.82-.59-12.85-3.93-18.19,11.14-2.28,22.26-6.06,32.86-10.59.45,3.22,2.75,5.58,3.93,8.43,3.18,7.67,5.54,16.6,8.45,24.4,3.56,9.55,8.43,27.53,16.53,33.59,2.34,1.75,7.4,3.57,9.53,4.83,3.66,2.17,9.21,6.58,12.66,7.93,2.58,1,4.58.44,7.29,2.01s4.43,4.49,6.97,6.22c-1.77,1.9-4.95.88-7.07,1.53s-4.14,2.34-6.46,2.93c-10.74,2.74-13.3,1.06-22.51,9.91-9.07,8.72-8.73,24.32-.27,33.29l-16.01,5.17c-5.75-1.57-9.9,2.74-13.25,3.53-3.12.74-5.91-2.02-9.74-.03-2.48,1.29-5.08,15.47-4.49,18.72,1.1,6.04.87,10.29,1.82,15.62,3.39,18.89,11.74,39.07,16.98,57.79,2.12,7.57,1.9,15.33,4.66,23.52s6.06,16.7,9.82,24.46c1.59,3.28.84,5.26,4.14,8.42,7.05,6.76,11.06,5.17,19.44,5.37,6.63.16,7.65-.29,14-.94,7.48-.77,4.73.6,12.34-2.42,5.25-2.08,10.01-1.77,13.26-2.87,2.23-.76,6.68-4.83,9.21-5.97,5.36-2.42,15.78-3.77,19.29-9.28.6-.93,2.43-7.96,2.49-9.17.11-2.26-.3-6.16-.13-9.06.05-.86,1.55-.82,1.22-2.29-.2-.88-2.6-6.48-3.05-7.13-.81-1.16-2.63-.52-2.89-1.21-.33-.87.29-5.11-.05-7.09-.71-4.03-4.89-11.26-5.25-13.62-.22-1.44,1.25-2.98,1.13-4.12-.44-4.28-3.73-12.11-4.84-16.48-.51-2-.47-7.23-.72-7.86-.34-.88-2.34-.42-2.64-.65-.4-.3,2.64-6.75-4.52-6.74Z"/>
        <path class="cls-5" d="M64,358.53c3.4,1.14,6.55,4.46,5.28,8.42-1.87,5.85-47.2,16.55-54.42,18.74-3.63.24-5.63-6.99-2.24-9.06,1.3-.79,3.14-.8,4.54-1.6,10.08-5.74,20.05-9.39,30.51-13.29,5.12-1.91,10.32-5.24,16.32-3.21Z"/>
        <path class="cls-5" d="M98.91,521.19c1.5,1.47,4.14,3.05,5.04,4.07,1.77,2,2.03,4.48,3.19,6.46.39.66,1.74.2,1.96.71.73,1.7-.21,8.23-1.89,9.75-.48-2.74-1.75-7.89-2.82-10.35-1.38-3.15-5.32-6.35-5.47-10.64Z"/>
        <path class="cls-5" d="M154.34,571.53c-1.2,1.62-3.33,1.49-4.77,2.17.75-3.43,4.28-2,4.77-2.17Z"/>
        <g>
          <path class="cls-1" d="M92.96,515.65c3.3.28,4.29,3.93,5.95,5.55.15,4.29,4.1,7.49,5.47,10.64,1.07,2.46,2.35,7.6,2.82,10.35.96,5.53-1.06,4.86-1.45,7.23-1.07,6.57-2.61,18.7.35,24.56.42.83,5.62,7.2,6.21,7.53,1.81,1.01,3.23,0,4.35.41,1.43.51,2.81,2.04,5.23,2.52,1.56.31,8.88,1.09,10.01.96,1.01-.11,1.6-1.77,2.8-2.33,6.33-2.95,8.72-6.46,14.86-9.37,1.45-.68,3.57-.55,4.77-2.17.27-.09.56-.13.83-.22,7.17,0,4.13,6.44,4.52,6.74.3.23,2.3-.23,2.64.65.24.63.21,5.86.72,7.86,1.11,4.37,4.4,12.2,4.84,16.48.12,1.14-1.35,2.68-1.13,4.12.36,2.35,4.54,9.59,5.25,13.62.35,1.98-.28,6.21.05,7.09.26.69,2.09.05,2.89,1.21.45.65,2.85,6.25,3.05,7.13.34,1.47-1.16,1.43-1.22,2.29-.18,2.9.24,6.8.13,9.06-.06,1.21-1.89,8.23-2.49,9.17-3.51,5.5-13.93,6.86-19.29,9.28-2.53,1.14-6.98,5.21-9.21,5.97-3.25,1.1-8,.79-13.26,2.87-7.6,3.02-4.86,1.65-12.34,2.42-6.35.66-7.38,1.1-14,.94-8.38-.2-12.39,1.39-19.44-5.37-3.3-3.16-2.55-5.14-4.14-8.42-3.76-7.76-7.12-16.45-9.82-24.46s-2.54-15.95-4.66-23.52c-5.24-18.72-13.59-38.9-16.98-57.79-.96-5.32-.72-9.58-1.82-15.62-.59-3.25,2.02-17.44,4.49-18.72,3.83-1.98,6.62.77,9.74.03,3.35-.8,7.5-5.11,13.25-3.53l16.01-5.17ZM81.76,533.82c-2.16-4.7-6.33-.53-7.26,2.84l7.26-2.84ZM88.18,554.42c3.38,1.95,11.98-17.48-2.06-4.35,6.27-.98-.25,3.02,2.06,4.35ZM73.63,560.11c-2.78.46-5.69,1.25-4.1,4.66.87.53,6.01-3.82,4.1-4.66ZM68.53,567.73c-.62-.36-2.88.93-2.98,2.14-.42,4.85,5.78-.51,2.98-2.14ZM76.78,598.55c-.1-2.74-.35-6.68-4.27-6,1.07,4.77-2.5,7.48,4.27,6ZM109.39,596.96c.6,4.95,3.55,3.91,7.18,2.85,1.23-.36,2.3.71,2.96-1.56-3.22-1.23-6.76-2.83-10.14-1.3ZM129.04,597.06c-1.01.45-3.6.52-4.03,1.23-.14.22-.88,4.83-.41,5.22,1.22,1.04,6.77.5,6.39-2.51l-2.62.24.67-4.18ZM144.7,595.54c-.18-.13-3.5.39-4.38.28l1.11,4.17c2.38.43,5.21-3.08,3.27-4.44ZM81.69,616.88c-4.65,1.59-.71,5.68-1.09,9.21,3.15-.38,2.52-8.42,1.09-9.21ZM93.35,613.75c-4.05,2.03-2.49,7.01-.87,10.04,2.43-3.06,2.38-6.53.87-10.04ZM107.32,622.49c2.64.84,2.57-6-.41-6.07-1.23-.03-3.75,2.13-3.93,3.25-.31,1.84,2.28.91,3.32,1.3.86.32.93,1.5,1.02,1.53ZM110.21,630.84c-1.31-.79-3.27.97-4.65.19,1.73,2.58.14,3.56.32,6.14,5.2,1.22,9.25-3.38,4.33-6.33ZM89.27,645.19c-1.57-2.01-1.69-6.27-4.49-6.83.6,3.77-.92,8.08,4.49,6.83ZM142.82,625.65c-.53-.26-2.52.34-3.04.86l-2.2,5.75c1.77-.23,3.38-2.27,5.1-2.2,1.8.08,2.12,4.89,4.76-.88-2.65.2-4.33-3.38-4.62-3.52ZM165.17,643.29c.19-.75,1.11-7.23,1.03-7.61-.11-.47-3.32-5.52-3.78-5.6-1.59-.29-1.29,4.38-1.21,5.24.32,3.31,2.26,7,2.33,10.52.53-.08,1.57-2.3,1.63-2.55ZM113.51,645.87c-1.99-.63-2.49,3.05-4.4,3.38l6.38.53c.19-.45-1.76-3.84-1.97-3.91ZM127.44,651.04c4.49-.36,5.99-5.18,1.95-7.65l-1.95,7.65ZM108.23,666.02c-3.72.72-8.44-3.82-9.26,2.03,2.99-.36,7.78,1.65,9.26-2.03ZM111.34,664.29c-.17.27.53,2.02,1.06,2.44,1.45,1.16,9.09-1.21,8.65-2.81-.48-1.78-5.91.66-6-2.41l-.81.22c1.37,2.61-2.58,2.05-2.91,2.56ZM147.99,654.47c-.64-.38-8.73,2.35-8.5,4.94l9.38-1.61-.88-3.33Z"/>
          <path class="cls-5" d="M165.17,643.29c-.06.25-1.1,2.47-1.63,2.55-.07-3.52-2.02-7.21-2.33-10.52-.08-.86-.37-5.53,1.21-5.24.45.08,3.67,5.14,3.78,5.6.09.37-.84,6.86-1.03,7.61Z"/>
          <path class="cls-2" d="M88.18,554.42c-2.3-1.33,4.22-5.33-2.06-4.35,14.04-13.13,5.44,6.3,2.06,4.35Z"/>
          <path class="cls-2" d="M142.82,625.65c.29.14,1.97,3.73,4.62,3.52-2.64,5.78-2.96.96-4.76.88-1.73-.07-3.34,1.97-5.1,2.2l2.2-5.75c.52-.52,2.51-1.12,3.04-.86Z"/>
          <path class="cls-4" d="M110.21,630.84c4.92,2.96.87,7.55-4.33,6.33-.17-2.58,1.41-3.56-.32-6.14,1.39.77,3.34-.98,4.65-.19Z"/>
          <path class="cls-2" d="M109.39,596.96c3.38-1.53,6.93.06,10.14,1.3-.66,2.26-1.73,1.2-2.96,1.56-3.63,1.06-6.58,2.09-7.18-2.85Z"/>
          <path class="cls-2" d="M111.34,664.29c.32-.51,4.28.05,2.91-2.56l.81-.22c.09,3.06,5.51.63,6,2.41.44,1.6-7.2,3.98-8.65,2.81-.53-.42-1.23-2.17-1.06-2.44Z"/>
          <path class="cls-4" d="M129.04,597.06l-.67,4.18,2.62-.24c.38,3.01-5.17,3.55-6.39,2.51-.46-.39.28-5,.41-5.22.42-.71,3.02-.77,4.03-1.23Z"/>
          <path class="cls-4" d="M93.35,613.75c1.51,3.51,1.56,6.98-.87,10.04-1.62-3.03-3.18-8.01.87-10.04Z"/>
          <path class="cls-4" d="M107.32,622.49c-.09-.03-.16-1.21-1.02-1.53-1.04-.39-3.63.54-3.32-1.3.19-1.12,2.7-3.28,3.93-3.25,2.98.07,3.04,6.91.41,6.07Z"/>
          <path class="cls-2" d="M147.99,654.47l.88,3.33-9.38,1.61c-.24-2.59,7.86-5.32,8.5-4.94Z"/>
          <path class="cls-2" d="M81.69,616.88c1.43.8,2.06,8.83-1.09,9.21.38-3.53-3.55-7.62,1.09-9.21Z"/>
          <path class="cls-4" d="M127.44,651.04l1.95-7.65c4.04,2.47,2.54,7.29-1.95,7.65Z"/>
          <path class="cls-2" d="M76.78,598.55c-6.77,1.48-3.2-1.22-4.27-6,3.92-.68,4.17,3.26,4.27,6Z"/>
          <path class="cls-4" d="M108.23,666.02c-1.49,3.68-6.27,1.67-9.26,2.03.82-5.85,5.55-1.31,9.26-2.03Z"/>
          <path class="cls-4" d="M89.27,645.19c-5.41,1.26-3.9-3.06-4.49-6.83,2.81.56,2.92,4.82,4.49,6.83Z"/>
          <path class="cls-4" d="M81.76,533.82l-7.26,2.84c.93-3.36,5.1-7.53,7.26-2.84Z"/>
          <path class="cls-4" d="M144.7,595.54c1.94,1.36-.89,4.87-3.27,4.44l-1.11-4.17c.89.12,4.2-.4,4.38-.28Z"/>
          <path class="cls-4" d="M113.51,645.87c.21.07,2.16,3.46,1.97,3.91l-6.38-.53c1.91-.33,2.41-4.02,4.4-3.38Z"/>
          <path class="cls-4" d="M73.63,560.11c1.92.84-3.23,5.19-4.1,4.66-1.6-3.41,1.32-4.2,4.1-4.66Z"/>
          <path class="cls-4" d="M68.53,567.73c2.8,1.63-3.41,7-2.98,2.14.11-1.21,2.37-2.5,2.98-2.14Z"/>
        </g>
      </g>
      <g>
        <path class="cls-3" d="M366.39,281.42c-3.62,10.94-13.61,22.22-25.79,24.17-2.43.39-14.53-1.16-16.22-2.37-.63-.46-8.34-11.78-8.79-12.88-1.7-4.09-5.3-23.49-5.85-28.64-1.23-11.51,2.45-35.15,9.4-44.57,4.94-6.69,18.12-14.31,26.61-11.89,5.84,1.66,13.59,6.64,17.39,11.35,9.28,11.52,7.88,50.88,3.27,64.83ZM353.68,281.81c.44-.82,1.59-1.31,2.11-2.64,4.68-11.91,6.86-43.73-.25-54.32-.26-.39-6.44-5.9-6.96-6.23-.72-.45-10.19-3.44-10.75-3.35-1.53.25-8.09,3.96-9.18,5.25-1.81,2.14-1.78,6.41-2.99,8.48-.57.98-2.33,1.3-2.6,2.02-1.5,4-3.66,16.57-3.99,21.28-.86,12.2,1.71,26.44,7.63,37.18,5.01,9.07,21.38,2.4,26.18-4.08.9-1.21.23-2.52.8-3.59Z"/>
        <path class="cls-5" d="M353.68,281.81c-.57,1.07.09,2.38-.8,3.59-4.8,6.48-21.18,13.15-26.18,4.08-5.93-10.74-8.49-24.97-7.63-37.18.33-4.71,2.5-17.28,3.99-21.28.27-.72,2.03-1.04,2.6-2.02,1.21-2.07,1.18-6.34,2.99-8.48,1.09-1.29,7.65-5.01,9.18-5.25.56-.09,10.03,2.9,10.75,3.35.52.33,6.7,5.85,6.96,6.23,7.11,10.59,4.94,42.41.25,54.32-.52,1.33-1.68,1.81-2.11,2.64ZM338.49,240.34c-2.62-1.91-6.02-.85-7.76,1.81-.73,1.11-3.38,12.86-3.35,14.32.05,2.54,1.85,12.61,2.69,14.94.54,1.48,1.32,4.02,3.03,4.49,2.08.57,7.78.19,9.35-1.63,1.06-1.23,2.45-16.11,2.14-18.47-.46-3.57-3.25-13.36-6.11-15.45Z"/>
        <path class="cls-3" d="M338.49,240.34c2.85,2.08,5.64,11.87,6.11,15.45.31,2.36-1.08,17.24-2.14,18.47-1.57,1.82-7.27,2.2-9.35,1.63-1.71-.47-2.49-3.01-3.03-4.49-.85-2.33-2.64-12.4-2.69-14.94-.03-1.46,2.63-13.21,3.35-14.32,1.74-2.66,5.14-3.72,7.76-1.81Z"/>
      </g>
      <g>
        <path class="cls-3" d="M263.87,229.39c.23.22,1.11.13,1.57.58,10.85,10.95,13.36,41.18,9.65,55.87-.18.71-1.37,1.28-1.59,2.06-2.03,7.12-1.51,12.05-7.93,17.98-8.24,7.61-21.25,13-29.3,2.4-6.88-9.05-9.48-19.16-11.44-30.17-3.92-22.1-3.67-49.93,22.8-56.58,6.71-1.69,12.13,3.97,16.25,7.85ZM262.08,241.07c-.11-.11-1.73-.23-2.66-.9-5.28-3.78-5.75-8.04-13.49-7.28-1.42.14-7.35,4.16-8.54,5.32-2.78,2.71-.94,5.4-1.6,8.26-2.51,10.96-2.96,22.81-1.19,34.49,1.12,7.38,5.42,22.06,14.51,22.12,4.48.03,11.76-6.04,13.6-10.1,6.97-15.37,4.44-32.71-.44-48.08-.36-1.12.36-3.25-.2-3.84Z"/>
        <path class="cls-5" d="M262.08,241.07c.57.59-.15,2.71.2,3.84,4.89,15.36,7.42,32.71.44,48.08-1.85,4.07-9.12,10.13-13.6,10.1-9.09-.06-13.39-14.75-14.51-22.12-1.78-11.69-1.33-23.54,1.19-34.49.65-2.86-1.18-5.55,1.6-8.26,1.18-1.16,7.12-5.18,8.54-5.32,7.74-.76,8.21,3.5,13.49,7.28.93.67,2.55.79,2.66.9ZM251.88,256.31c-.16-.15-4.01-1.39-4.23-1.36-1.86.21-5.93,3.88-6.96,5.59-.15.24-2.15,4.94-2.17,5.22-.58,7.28,1.01,14.3,4.8,20.58,3.21,5.33,10.56,2.76,11.73-2.71,1.76-8.24,0-14.25-2.34-21.83-.36-1.16-.56-5.23-.82-5.48Z"/>
        <path class="cls-3" d="M251.88,256.31c.26.25.47,4.32.82,5.48,2.34,7.58,4.11,13.59,2.34,21.83-1.17,5.47-8.52,8.04-11.73,2.71-3.79-6.28-5.37-13.3-4.8-20.58.02-.28,2.03-4.97,2.17-5.22,1.03-1.71,5.1-5.38,6.96-5.59.22-.03,4.07,1.21,4.23,1.36Z"/>
      </g>
    </g>
  </g>
</svg>