<svg version="1.1" id="Layer_1" xmlns="http://www.w3.org/2000/svg" xmlns:xlink="http://www.w3.org/1999/xlink" x="0px" y="0px"
	 width="100%" viewBox="0 0 1024 576" enable-background="new 0 0 1024 576" xml:space="preserve">
<path fill="#000000" opacity="1.000000" stroke="none" 
	d="
M1025.000000,263.000000 
	C1025.000000,310.687561 1025.000000,358.375122 1024.718506,406.306366 
	C1019.023926,403.954529 1013.055969,405.360870 1007.470947,404.942230 
	C1001.994263,404.531647 997.076965,404.066132 992.378357,401.227203 
	C987.720703,398.413055 983.091919,398.340759 978.230469,401.214874 
	C972.645752,404.516510 966.789856,407.358551 961.060730,410.417023 
	C957.747986,412.185455 955.059082,414.716125 953.166443,417.898987 
	C946.187134,429.636719 934.755798,435.322815 922.311646,436.506042 
	C902.521362,438.387817 884.050537,444.655334 865.253418,450.054993 
	C863.685669,450.505310 862.024963,451.260468 860.853699,452.352600 
	C856.000061,456.878479 850.249573,460.394958 846.233826,465.879395 
	C839.283142,475.372070 829.518982,480.655914 818.205627,482.641663 
	C799.171143,485.982666 780.130310,488.090881 760.589355,486.349426 
	C744.550781,484.920074 728.263489,486.529907 712.140442,485.718689 
	C699.913086,485.103424 687.867371,485.094269 675.842224,487.389587 
	C671.881775,488.145538 667.876282,487.941376 663.878357,487.776764 
	C648.400024,487.139343 632.922180,486.492798 617.443237,485.872833 
	C610.598877,485.598694 603.856567,484.942963 597.293274,482.678467 
	C588.961243,479.803711 580.629089,477.423553 571.495117,477.818176 
	C560.533569,478.291748 551.656555,473.092957 544.815674,464.675140 
	C542.081116,461.310242 538.922668,459.029419 534.592834,459.598358 
	C521.744324,461.286682 508.996674,458.686646 496.175659,458.957947 
	C487.836884,459.134399 481.188965,455.817169 475.469543,449.015076 
	C467.464233,439.494324 457.223846,432.546478 444.810669,429.460114 
	C436.819397,427.473175 428.575287,428.082550 420.532471,427.118256 
	C398.805176,424.513397 377.801910,428.165131 356.905609,433.111328 
	C347.814728,435.263153 338.884155,435.667114 329.682648,434.168365 
	C318.717041,432.382233 307.892273,429.447998 296.523499,430.833710 
	C284.101685,432.347748 276.246857,439.831238 271.358429,450.316650 
	C268.744843,455.922668 267.109528,462.181030 265.687561,468.384186 
	C262.976410,480.211365 256.902130,483.658051 245.163559,480.777802 
	C242.222412,480.056152 239.534851,478.814362 236.810349,477.534912 
	C228.565369,473.662872 220.492905,469.150787 210.727905,471.006836 
	C207.445862,471.630646 204.233368,472.416840 201.009995,473.249084 
	C194.040405,475.048553 189.050507,473.009918 185.376694,467.086304 
	C184.949692,466.397797 184.375153,465.691772 183.694672,465.286804 
	C178.130829,461.975342 176.127594,456.926971 175.653091,450.668335 
	C175.101822,443.397034 171.512177,437.370880 164.019470,436.250488 
	C154.040634,434.758331 143.873047,434.134338 133.806946,436.659851 
	C121.011871,439.869995 108.323318,438.923950 96.008652,434.452179 
	C92.262009,433.091705 88.629219,431.300659 84.717163,430.545013 
	C70.639603,427.825684 57.405308,423.350525 46.661015,413.312927 
	C46.421829,413.089447 46.095638,412.961792 45.822144,412.772003 
	C38.610695,407.766602 34.630680,401.130829 34.971470,392.093231 
	C35.115200,388.281525 34.719227,384.448853 34.555305,380.626312 
	C34.010509,367.921539 23.672895,363.903595 14.671534,359.452606 
	C10.916130,357.595642 6.918019,356.871185 4.944276,352.708130 
	C3.961358,350.634979 2.608936,350.597534 1.000000,352.000000 
	C1.000000,341.312439 1.000000,330.624878 1.237877,319.651123 
	C4.136428,321.572083 5.475248,319.277679 6.636407,317.601654 
	C8.784628,314.500916 11.552929,313.475555 15.274380,312.683655 
	C23.275412,310.980957 31.237474,308.361389 34.597660,299.555023 
	C40.432354,284.263458 51.467834,274.368958 66.476784,268.529724 
	C76.096909,264.787018 84.678215,259.544891 91.233070,251.375519 
	C93.474762,248.581665 96.348999,246.626633 99.593513,245.191650 
	C108.126305,241.417740 116.814178,237.959457 125.170837,233.830170 
	C139.413361,226.792526 154.128540,224.991211 169.827789,227.252228 
	C181.152847,228.883240 192.531357,230.682236 204.134918,230.043930 
	C219.904480,229.176468 223.992554,226.813644 229.084396,212.007812 
	C232.699997,201.494583 239.652542,194.564682 249.340988,189.850861 
	C252.779663,188.177841 256.213440,186.534531 258.948425,183.675293 
	C270.931488,171.147949 279.830750,157.054596 282.447388,139.508362 
	C283.445984,132.811737 285.963623,130.635452 291.704559,129.271011 
	C306.463196,125.763382 321.367798,123.109108 336.438995,121.463142 
	C345.016876,120.526329 353.472900,117.692543 362.218445,119.148026 
	C374.424774,121.179474 386.635590,120.162811 398.520081,117.907486 
	C420.288269,113.776535 441.679199,117.939751 463.212463,119.248482 
	C466.232697,119.432045 469.029205,120.753128 471.533020,122.464981 
	C475.970947,125.499168 480.748413,126.194252 485.830841,124.658470 
	C492.773224,122.560646 499.746155,123.279785 506.601410,124.711594 
	C518.906128,127.281601 531.283936,128.565704 543.841614,127.981682 
	C550.818237,127.657219 557.472961,129.790024 562.611511,133.811035 
	C573.012024,141.949692 584.240479,142.238358 596.185120,139.762756 
	C599.504395,139.074799 602.860779,138.510147 606.084900,139.418106 
	C626.806702,145.253662 648.101562,143.282593 669.145020,143.700363 
	C682.867920,143.972824 695.337769,146.592865 707.398193,153.151978 
	C716.429199,158.063461 725.998291,162.080765 736.873962,161.204605 
	C741.142639,160.860718 745.502197,161.822372 749.827759,161.964096 
	C755.955566,162.164886 760.413757,165.230392 763.121521,170.353668 
	C771.674072,186.535980 781.181580,202.359985 787.168579,219.676559 
	C791.687988,232.748383 799.703064,240.740295 812.725098,244.609619 
	C818.595215,246.353867 824.432007,247.032761 830.462280,246.822784 
	C835.675903,246.641220 840.765991,247.093719 845.606445,249.304016 
	C856.835205,254.431396 868.167236,254.537247 879.531189,249.753540 
	C884.210632,247.783707 889.061584,246.787338 894.133606,246.870117 
	C917.612183,247.253342 941.109314,247.206360 964.561584,248.207855 
	C976.521851,248.718613 988.366272,251.551910 999.510254,256.105957 
	C1005.531555,258.566559 1011.614075,260.777557 1017.734436,262.925964 
	C1020.122803,263.764343 1022.565430,264.318390 1025.000000,263.000000 
M355.311798,212.788483 
	C355.661194,216.084610 355.938965,219.390198 356.372375,222.675247 
	C358.236816,236.805954 360.567932,250.858810 363.388794,264.832733 
	C363.909882,267.413940 365.035583,268.897369 367.741394,269.527527 
	C376.909576,271.662628 379.349335,269.420502 377.714996,260.074554 
	C377.629303,259.584564 377.662750,259.074005 377.581421,258.582886 
	C374.980194,242.876572 373.255066,226.996170 370.235504,211.407471 
	C367.158813,195.523895 361.814484,180.085052 357.630096,164.406906 
	C356.513977,160.224960 353.947784,158.165161 349.888397,157.920883 
	C345.582642,157.661789 343.117157,160.343170 341.724396,164.017731 
	C338.188965,173.345444 335.297729,182.846176 333.198059,192.637131 
	C331.267090,201.641373 329.410339,210.671051 327.699463,219.970932 
	C324.313202,219.328766 322.676666,217.062424 321.068420,215.118103 
	C313.609161,206.100113 306.369446,196.900909 298.960815,187.840424 
	C295.924347,184.126923 293.686035,179.699081 289.590393,176.915741 
	C286.288116,174.671570 282.591492,174.786530 279.129181,176.154907 
	C276.419220,177.225952 276.031158,179.949722 276.559174,182.567017 
	C280.166229,200.446335 277.912048,218.206406 275.795044,236.014069 
	C274.680969,245.385529 273.204865,254.753616 273.385895,264.243500 
	C273.464905,268.385590 278.739044,273.337372 282.904602,273.268158 
	C286.399200,273.210052 288.580078,269.989716 288.644409,264.816071 
	C288.689941,261.154266 288.326080,257.426178 288.885040,253.843140 
	C290.752075,241.874298 292.282715,229.892426 292.703033,217.769424 
	C292.836609,213.917023 293.578979,210.085739 294.100372,205.768066 
	C297.919739,208.262833 299.392609,211.775955 301.581787,214.589325 
	C310.040558,225.459961 321.610687,233.559113 328.762360,245.629547 
	C330.631989,248.785080 334.490295,250.663467 338.372620,249.087158 
	C342.183563,247.539825 341.709503,243.702209 341.531372,240.381378 
	C341.416962,238.248703 340.402832,236.237198 340.758087,233.993042 
	C342.308807,224.197388 341.775635,214.131882 344.622711,204.497604 
	C345.960632,199.970230 346.199677,195.102036 349.193024,190.888550 
	C351.200348,197.898254 353.207672,204.907974 355.311798,212.788483 
M927.013672,363.084473 
	C925.157166,351.778931 923.300659,340.473389 921.382263,328.790771 
	C924.455139,329.410370 924.911804,331.439972 925.862671,332.859497 
	C929.186707,337.821930 932.393372,342.865662 935.544373,347.940765 
	C942.905762,359.797516 951.023743,371.215363 956.610352,384.107727 
	C958.467712,388.393982 963.148071,390.881012 967.702087,390.075378 
	C971.488647,389.405518 973.172974,387.343384 972.478271,383.396118 
	C971.760559,379.317871 970.861389,375.220673 970.692993,371.105103 
	C969.743225,347.889191 971.099670,324.910065 978.853333,302.731354 
	C980.003357,299.441956 981.509460,296.320740 981.649902,292.723938 
	C981.797058,288.954803 980.412415,285.645538 976.931030,284.850677 
	C973.508911,284.069397 969.623047,285.484924 968.212280,289.139893 
	C963.129517,302.307983 959.179321,315.795074 957.303650,329.866608 
	C956.447998,336.286041 957.425964,343.030090 954.765137,349.144714 
	C952.600769,348.986115 952.174683,347.526062 951.479919,346.487701 
	C946.311157,338.762543 941.092834,331.066772 936.109497,323.222351 
	C929.526855,312.860413 921.291504,304.138916 911.177856,297.193420 
	C907.737915,294.831055 903.736145,294.208984 900.432007,296.524567 
	C896.807922,299.064392 898.775208,302.853149 900.066223,306.083374 
	C903.208435,313.945129 905.468872,322.077759 907.361206,330.299500 
	C910.410522,343.547699 911.104248,357.209015 914.322388,370.449158 
	C916.043762,377.531128 917.075256,384.777985 918.623291,391.905884 
	C919.463989,395.776642 925.106567,399.339630 928.745422,398.114563 
	C932.670532,396.793091 933.591858,393.682892 932.695190,389.680115 
	C930.775208,381.109070 929.088989,372.485687 927.013672,363.084473 
M813.468262,339.386292 
	C813.930847,342.633240 815.108337,345.889801 812.908691,349.036804 
	C812.520691,349.591949 812.620728,350.696564 812.846558,351.440887 
	C815.669922,360.746307 814.709778,370.180176 813.520203,379.531342 
	C812.465637,387.821075 816.385498,391.570740 824.854309,390.029816 
	C844.061768,386.534943 862.888428,380.769135 882.655334,380.544952 
	C887.688293,380.487854 889.882874,375.589203 887.468323,371.110168 
	C885.262451,367.018250 881.437439,366.630341 877.584290,366.752502 
	C866.760193,367.095612 856.197144,369.318665 845.650757,371.595459 
	C840.221191,372.767578 834.773560,373.855896 828.638855,375.126068 
	C828.638855,370.581604 829.047913,366.726013 828.543274,362.993927 
	C827.778625,357.338898 830.977417,355.449066 835.522827,354.869629 
	C849.158508,353.131470 862.601135,349.956451 876.412109,349.497162 
	C881.451172,349.329590 884.054260,346.631073 883.722595,341.947815 
	C883.398010,337.364441 879.618042,336.462006 876.142273,336.489166 
	C871.532776,336.525116 866.917419,337.319427 862.326782,337.949677 
	C851.360413,339.455322 840.406982,341.055786 829.191528,342.654541 
	C828.352478,333.751740 827.488464,324.875427 826.694092,315.992889 
	C826.424744,312.980835 828.650574,312.187714 830.944885,311.322693 
	C840.428284,307.747009 850.539246,308.193665 860.337280,306.654938 
	C861.415527,306.485596 862.720947,306.674469 863.701416,307.150024 
	C869.745911,310.081970 873.651978,308.720276 876.700073,302.463745 
	C879.516357,296.683014 877.070435,292.675598 870.700928,292.383820 
	C859.514404,291.871246 848.679382,294.523071 837.689941,295.815216 
	C829.529724,296.774719 821.916931,299.737000 814.062805,301.787231 
	C808.610229,303.210602 807.905701,305.641815 810.537415,310.531372 
	C811.570312,312.450470 812.011169,314.526123 812.432800,316.668152 
	C813.862305,323.929901 813.153992,331.262390 813.468262,339.386292 
M203.589905,380.680481 
	C207.091232,380.421753 210.170746,378.940979 210.191315,375.249878 
	C210.208588,372.153503 208.705826,368.908478 205.178345,367.893005 
	C203.144165,367.307434 200.907639,367.332153 198.756302,367.261383 
	C185.814285,366.835449 173.463577,370.372375 160.947662,372.869659 
	C157.789551,373.499756 154.755173,375.181519 150.662857,374.498871 
	C150.662857,370.121094 150.800552,365.824829 150.620468,361.541901 
	C150.468903,357.937073 151.769775,356.067810 155.495453,355.414764 
	C169.379974,352.980988 183.217804,350.263428 197.342926,349.581116 
	C202.284805,349.342346 205.218948,346.732574 205.272247,342.444031 
	C205.313568,339.120178 201.416687,336.047943 196.903687,336.430908 
	C189.637863,337.047455 182.386398,337.917725 175.162643,338.923309 
	C166.878235,340.076569 158.630661,341.494263 149.959259,342.861359 
	C149.474289,334.773285 149.562302,327.151367 148.755737,319.566650 
	C148.017746,312.626892 148.903732,311.935455 155.825745,310.078400 
	C156.306992,309.949310 156.791367,309.813446 157.283234,309.745117 
	C164.658737,308.720367 172.024643,307.611542 179.419083,306.747192 
	C181.665436,306.484619 184.209793,306.047882 186.142258,307.774048 
	C189.270767,310.568542 191.934631,309.333435 194.538071,307.070526 
	C197.830902,304.208344 200.457382,300.698975 199.253006,296.234863 
	C198.199448,292.329651 194.370346,292.490814 190.942078,292.304443 
	C183.097778,291.878052 175.493973,293.769684 167.769135,294.453674 
	C156.300766,295.469116 145.336258,298.971191 134.341293,302.125305 
	C130.193207,303.315277 129.194809,306.828033 131.707520,310.410797 
	C133.456161,312.904144 134.061996,315.649506 134.179810,318.390198 
	C134.501068,325.863647 136.067642,333.299896 135.297150,340.791656 
	C134.664474,346.943573 134.768173,352.841553 135.956680,359.054626 
	C137.342514,366.299103 136.008682,373.911530 135.249725,381.333038 
	C134.622772,387.463623 138.500229,391.460449 144.547318,390.350006 
	C152.705338,388.851898 160.822037,387.106262 168.915604,385.285248 
	C180.097794,382.769257 191.395157,381.196686 203.589905,380.680481 
M652.783142,323.711365 
	C647.870850,318.081787 644.566040,311.262634 639.224915,305.885803 
	C637.177063,303.824219 634.411316,301.629120 634.598511,297.929291 
	C634.805664,293.835419 632.942505,290.861145 629.139587,289.287079 
	C625.232971,287.670044 622.861694,290.560181 620.428467,292.682068 
	C617.697815,295.063293 616.580994,298.079041 618.416748,301.610779 
	C619.254639,303.222687 618.922791,304.763275 618.460999,306.429779 
	C615.627197,316.655487 610.312988,325.819794 604.733765,334.555389 
	C601.524170,339.580811 600.323608,345.485229 596.227112,350.051575 
	C585.700256,361.785950 575.556580,373.864288 565.278137,385.820923 
	C563.702515,387.653717 560.835571,389.303375 562.040405,392.033081 
	C563.269836,394.818665 566.479126,395.325378 569.340271,395.519348 
	C572.875183,395.759064 575.799561,394.419525 578.163635,391.713928 
	C581.749756,387.609802 585.286194,383.445587 589.109802,379.569366 
	C596.466858,372.111206 603.745239,364.609650 609.325745,355.662872 
	C611.320007,352.465607 613.717285,349.967896 617.637634,349.052368 
	C627.057312,346.852753 636.497986,345.118774 646.244629,345.596344 
	C648.566101,345.710083 650.381897,346.181488 651.781860,348.218018 
	C659.027771,358.758911 669.609924,366.021759 678.389221,375.063141 
	C680.449219,377.184692 682.905579,379.054962 685.478882,380.512390 
	C689.049255,382.534576 692.667419,382.099762 695.375122,378.802246 
	C698.015625,375.586548 696.107910,372.720093 693.878906,370.378174 
	C689.178955,365.440186 684.665955,360.187897 679.330139,356.019775 
	C668.210266,347.333313 660.491577,336.034790 652.783142,323.711365 
M448.640656,260.097778 
	C454.644867,251.236618 457.369171,241.196548 456.441315,230.799759 
	C455.299805,218.009293 453.986389,205.087158 450.352020,192.710648 
	C447.980255,184.633850 445.043121,176.375092 436.167999,172.636719 
	C430.374908,170.196564 424.550354,167.830093 418.774902,165.349167 
	C414.446960,163.490036 410.716827,164.535721 407.143616,167.270981 
	C400.935394,172.023407 398.710968,178.795593 396.953033,186.024765 
	C391.355896,209.041718 393.409027,231.121765 402.382721,253.171051 
	C408.591187,268.425873 430.890533,276.348358 443.745056,264.676636 
	C445.223328,263.334381 446.681915,261.970398 448.640656,260.097778 
M666.633240,186.713776 
	C664.296143,178.599899 666.113159,168.174149 654.005127,165.610123 
	C651.436462,165.066177 649.866699,165.556259 648.143066,166.771973 
	C646.124573,168.195709 647.166443,169.939346 647.859619,171.678986 
	C655.281189,190.303574 652.214844,209.705124 651.741516,228.845627 
	C651.453369,240.499817 651.166199,252.148407 651.697937,263.776886 
	C651.927368,268.793091 656.814880,269.042664 660.481750,269.413422 
	C663.397156,269.708160 665.713989,267.746246 665.676392,264.556580 
	C665.567017,255.279297 667.524536,246.037613 666.104370,236.742218 
	C665.832092,234.960358 665.888977,233.192993 667.437683,231.547897 
	C669.701599,232.764496 671.047913,234.690262 672.513855,236.435532 
	C679.139648,244.323898 686.044556,251.866333 694.847046,257.485596 
	C701.049744,261.445221 707.449219,264.891754 714.486206,267.091766 
	C717.772705,268.119232 720.469666,267.544342 721.913330,264.107941 
	C723.352844,260.681366 721.466125,258.827393 718.621582,257.403137 
	C716.841675,256.511932 715.089966,255.528595 713.442810,254.413544 
	C699.309387,244.845520 686.838501,233.613297 676.583618,219.792435 
	C667.878967,208.060944 668.646545,209.954102 679.572205,203.569611 
	C690.224060,197.345108 697.606201,188.048431 704.232544,178.042297 
	C706.320862,174.888779 706.647217,171.419647 702.731750,168.931992 
	C698.619934,166.319580 694.825378,166.783890 692.463013,170.684189 
	C687.822815,178.345276 681.185242,184.150604 674.749329,190.120483 
	C672.704590,192.017242 670.495544,194.250916 667.239563,194.239822 
	C666.261292,191.918457 666.771179,189.728287 666.633240,186.713776 
M484.345154,176.924408 
	C480.128021,174.856750 475.233398,173.527542 471.920013,177.178741 
	C468.148712,181.334534 472.589294,184.793945 475.072845,187.884613 
	C482.235992,196.798920 490.182495,205.145248 496.725220,214.482681 
	C507.785919,230.267960 516.251343,247.617584 524.705811,264.906555 
	C526.773987,269.135925 529.883728,270.834229 534.277222,270.396423 
	C538.801514,269.945618 538.723083,265.828644 539.385925,262.831818 
	C540.093201,259.633728 539.304565,256.096802 540.056946,252.918015 
	C543.426025,238.683914 547.116699,224.455353 554.216675,211.566879 
	C561.453491,198.429977 567.778259,184.494751 580.772034,175.497498 
	C582.733826,174.139084 583.715088,171.769928 583.177551,169.302216 
	C582.706238,167.138443 581.541077,165.020798 579.176819,164.625778 
	C575.554138,164.020569 571.774963,163.722275 568.767822,166.542908 
	C561.299255,173.548340 554.096741,180.672073 549.137512,189.922455 
	C541.601929,203.978455 533.764648,217.844635 529.617737,233.403381 
	C529.366455,234.346054 529.052490,235.367966 527.805115,235.532425 
	C526.610352,235.431671 526.316528,234.436157 525.774902,233.604141 
	C520.531372,225.549042 517.035950,216.478806 510.900116,208.912415 
	C502.323700,198.336472 492.894684,188.465652 484.345154,176.924408 
M553.103149,300.555908 
	C554.399902,299.536438 555.688782,298.506836 556.994873,297.499512 
	C560.059082,295.136200 562.477966,292.304199 560.742493,288.244110 
	C559.439941,285.196777 552.769897,283.691132 549.641968,285.595764 
	C545.220093,288.288239 541.100281,291.497101 537.876526,295.555908 
	C527.506897,308.611694 519.378052,322.993134 513.237671,338.487732 
	C510.892883,344.404510 508.703369,350.382843 506.501709,356.178741 
	C504.520508,355.964966 504.054382,354.869141 503.491455,353.849670 
	C500.362427,348.182587 497.429260,342.394318 494.042206,336.885345 
	C485.734833,323.373657 473.784943,312.720428 464.645569,299.844025 
	C462.155029,296.335144 458.135010,295.841736 454.381012,295.681152 
	C449.921600,295.490387 447.278839,300.393250 449.879547,304.182831 
	C453.439148,309.369659 457.212677,314.505920 461.538116,319.051453 
	C471.350739,329.363312 479.323151,340.890289 486.266754,353.263916 
	C492.262543,363.948517 496.995941,375.242004 502.695221,386.062408 
	C504.819092,390.094696 508.432648,391.021790 512.393616,390.521637 
	C516.547913,389.997070 517.304077,386.543884 517.578613,383.063202 
	C517.813354,380.087860 517.452148,377.106018 518.092834,374.117340 
	C521.166809,359.777069 525.408142,345.751343 531.939148,332.665558 
	C537.559448,321.404236 543.560059,310.187225 553.103149,300.555908 
M275.707916,366.997833 
	C277.024414,369.897491 275.003754,371.527710 273.091034,372.725464 
	C266.961823,376.563873 260.309784,377.560760 253.578003,374.655426 
	C246.737457,371.703125 238.672089,370.903076 234.213501,363.496979 
	C233.089005,361.629089 230.441696,360.691315 227.980118,362.342224 
	C225.913528,363.728210 222.937622,365.084839 223.686295,367.864441 
	C224.965698,372.614441 225.494354,377.721954 231.305878,380.364990 
	C236.445145,382.702240 241.617752,385.019165 246.914261,386.801331 
	C256.831268,390.138245 266.892456,391.430115 276.997742,386.728149 
	C286.581512,382.268829 292.103302,374.276886 290.412079,366.309235 
	C288.359161,356.637756 283.524872,348.743164 275.273590,343.127106 
	C263.479309,335.099640 251.601837,327.193329 239.862396,319.086823 
	C235.351242,315.971710 233.855728,309.714478 236.943146,304.584320 
	C239.557739,300.239838 244.102173,301.431213 248.087250,302.810059 
	C250.103577,303.507690 252.094421,304.495544 253.835159,305.723175 
	C256.537842,307.629181 258.832916,310.156464 261.642212,311.856018 
	C264.525635,313.600464 267.955078,314.598999 270.694977,311.501984 
	C273.501617,308.329498 272.649536,305.473511 270.000122,302.242340 
	C264.270538,295.254700 256.895172,291.026703 248.427856,288.841522 
	C240.963776,286.915283 233.885742,289.390289 227.402679,292.984741 
	C222.939667,295.459198 223.112152,300.523163 222.215698,304.852081 
	C221.778870,306.961639 221.460999,309.095490 221.061996,311.213226 
	C219.888397,317.442017 222.866791,324.263763 228.045090,327.584167 
	C237.965134,333.945038 247.896851,340.291473 257.702698,346.825562 
	C265.189148,351.814087 272.762360,356.834503 275.707916,366.997833 
M109.293312,324.067596 
	C107.197670,323.194550 105.129532,323.619843 102.947990,323.869019 
	C94.389549,324.846710 85.801132,325.565002 77.220894,326.347229 
	C74.206100,326.622070 72.731812,325.501953 72.555702,322.155457 
	C72.356598,318.372284 71.348152,314.637299 70.798256,310.865814 
	C69.748367,303.665131 71.307419,301.874725 78.544098,301.612396 
	C80.358009,301.546692 82.172050,300.972015 83.969261,301.044861 
	C92.368988,301.385406 100.711441,298.576843 109.158722,300.766449 
	C113.019768,301.767242 118.143028,297.772247 118.551941,293.794037 
	C119.008873,289.348755 116.404106,286.558167 111.412483,286.302307 
	C109.124893,286.185059 106.786453,286.213593 104.538757,286.115479 
	C92.841797,285.604919 81.400429,289.153656 69.774765,288.241821 
	C63.779720,287.771606 59.559547,291.141693 55.419056,293.967682 
	C52.141228,296.204926 55.788986,299.996063 56.246334,303.114288 
	C56.438011,304.421143 56.306812,305.774078 56.341557,307.105560 
	C56.419617,310.097107 56.219257,313.130615 56.647736,316.071960 
	C58.096710,326.018829 57.781429,336.036041 57.065517,345.935028 
	C55.989124,360.818451 54.013096,375.635773 54.334766,390.604950 
	C54.462555,396.551636 56.894863,398.651581 63.618877,398.619873 
	C68.112091,398.598724 69.604271,396.725555 69.641472,390.890503 
	C69.705017,380.921875 69.059128,370.887482 70.783142,361.035217 
	C71.791275,355.274048 71.098061,349.450958 72.352249,343.711456 
	C73.032051,340.600494 74.306442,339.714203 77.289612,339.572571 
	C87.222656,339.100983 97.142532,338.352509 107.067680,337.713806 
	C110.897240,337.467377 114.000397,336.015228 114.821503,331.966766 
	C115.605606,328.100800 113.574638,325.665405 109.293312,324.067596 
M755.695312,382.733063 
	C767.816162,382.667694 779.936890,382.573547 792.057800,382.556488 
	C795.218628,382.552063 798.043945,382.097992 799.683411,378.955902 
	C801.347351,375.766754 799.341492,373.664917 797.609924,371.375000 
	C795.274963,368.287109 792.208435,367.322784 788.456970,367.335236 
	C769.201172,367.399078 749.979797,367.900574 730.835815,370.268005 
	C722.509338,371.297760 721.738098,369.986511 723.000793,361.756653 
	C724.002502,355.228119 724.689026,348.556274 724.546570,341.969025 
	C724.321716,331.572235 723.596497,321.158386 722.449646,310.822052 
	C721.934509,306.179382 721.887756,301.554932 721.510315,296.932495 
	C721.142883,292.432739 717.462708,289.306183 713.100037,289.488281 
	C708.399231,289.684509 706.300842,292.035706 706.437805,297.392365 
	C706.509521,300.194763 707.082581,302.980896 707.340454,305.782532 
	C708.683167,320.371368 708.345154,335.000397 708.430847,349.622864 
	C708.481140,358.204468 707.246521,366.451904 703.856018,374.393097 
	C701.615662,379.640686 702.646606,382.070892 707.459717,385.243744 
	C710.385071,387.172150 713.658081,387.017883 716.645081,386.437286 
	C729.242065,383.988770 742.108521,384.614868 755.695312,382.733063 
M344.332397,382.876160 
	C346.985931,385.887878 350.094482,388.214661 354.249542,386.511200 
	C358.500763,384.768280 359.199371,380.846710 358.542664,376.838165 
	C357.998810,373.518646 358.580170,370.213104 358.239441,366.972412 
	C356.990692,355.095490 355.878235,343.209991 355.698090,331.270569 
	C355.619873,326.086395 354.951904,321.018402 353.976379,315.975403 
	C352.490051,308.292114 353.214813,307.610504 360.868561,305.575745 
	C369.240112,303.350159 377.869537,302.745209 386.250488,300.777100 
	C389.095245,300.109070 392.368774,299.116211 391.727539,295.019379 
	C391.178986,291.514862 386.686798,288.325226 383.217102,288.779419 
	C378.615509,289.381714 373.986755,289.866913 369.434448,290.740082 
	C347.446106,294.957733 325.349396,298.687042 303.842651,305.123383 
	C300.800323,306.033875 296.914124,306.278656 296.929718,310.273468 
	C296.945648,314.356018 300.920898,315.600861 304.036591,317.129059 
	C305.125427,317.663116 306.293427,317.383514 307.455231,317.100250 
	C310.843567,316.274048 314.260681,315.566315 317.651184,314.748505 
	C322.821808,313.501251 327.937317,311.965668 333.161346,311.025726 
	C335.626312,310.582214 338.885101,309.553101 339.402954,314.230164 
	C341.083191,329.405762 341.193481,344.674530 342.381470,359.876282 
	C342.961792,367.302582 343.455994,374.735626 344.332397,382.876160 
M409.206177,288.673767 
	C409.590607,299.445770 410.382904,310.221954 410.272949,320.988922 
	C410.057251,342.109497 411.385529,363.250092 409.534546,384.353912 
	C409.156830,388.660339 414.624664,393.659332 419.781494,393.323486 
	C423.944580,393.052368 425.506195,389.930847 425.629181,385.993591 
	C425.753784,382.006500 426.245575,378.008514 426.068085,374.038055 
	C425.094116,352.250183 426.078552,330.448212 425.454285,308.668884 
	C425.295135,303.116394 425.398590,297.355652 423.548340,291.923340 
	C421.687042,286.458557 413.806305,284.280975 409.206177,288.673767 
M618.593140,260.336823 
	C618.616089,235.853134 618.698792,211.369232 618.613464,186.885925 
	C618.595581,181.755066 618.250244,176.571396 616.813599,171.596878 
	C615.581177,167.329666 608.216309,164.021851 604.243103,165.808609 
	C602.175720,166.738297 601.568787,168.322449 601.754822,170.671112 
	C602.435425,179.265091 603.229980,187.874725 603.323669,196.485596 
	C603.550110,217.305801 603.399841,238.130005 603.420776,258.952606 
	C603.422974,261.114990 603.357361,263.306274 603.670166,265.433136 
	C604.212463,269.120605 608.709106,272.833740 612.239929,272.365204 
	C616.502625,271.799500 618.600891,269.091583 618.586609,264.778076 
	C618.582703,263.612061 618.590576,262.445953 618.593140,260.336823 
z"/>
<path fill="#000000" opacity="1.000000" stroke="none" 
	d="
M636.560425,325.583435 
	C637.436462,327.334167 638.811951,328.493805 638.815186,330.684052 
	C633.800476,332.443024 628.719971,333.137238 622.351624,333.282928 
	C624.828491,327.532990 626.974976,322.549896 629.195740,317.394531 
	C633.231018,319.059235 634.254456,322.651154 636.560425,325.583435 
z"/>
<path fill="#000000" opacity="1.000000" stroke="none" 
	d="
M441.389526,234.910263 
	C441.654846,240.556900 439.731354,245.112259 437.420166,249.589096 
	C435.249542,253.793594 431.682770,255.481888 427.188477,255.329651 
	C422.529999,255.171875 418.877686,253.052780 416.739960,248.837357 
	C408.371155,232.334778 406.866974,214.936264 410.041077,196.920746 
	C410.789337,192.673935 411.257599,188.382278 412.917480,184.345978 
	C415.053864,179.151154 417.732147,178.490219 421.968445,182.064301 
	C423.354126,183.233383 424.773102,184.854996 426.391541,185.171387 
	C433.571960,186.575043 435.898773,191.984634 437.168518,197.999695 
	C439.701996,210.001694 441.554871,222.115906 441.389526,234.910263 
z"/>
</svg>